<svg width="250" height="260" xmlns="http://www.w3.org/2000/svg" xmlns:xlink="http://www.w3.org/1999/xlink">
 <defs>
  <clipPath id="clip2">
   <path id="svg_1" d="m0.83984,0.55859l123.32813,0l0,93.55079l-123.32813,0l0,-93.55079zm0,0"/>
  </clipPath>
  <clipPath id="clip1">
   <rect id="svg_2" height="95" width="125" y="0" x="0"/>
  </clipPath>
  <g clip-path="url(#clip1)" id="surface5">
   <g id="svg_3" clip-rule="nonzero" clip-path="url(#clip2)">
    <path id="svg_4" fill-rule="nonzero" fill="rgb(100%,100%,100%)" d="m3,18.64844c1.57031,-3.35156 3.59766,-6.20313 6.125,-8.73047c4.78516,-4.79688 11.44922,-8.83203 20.39453,-9.30859c9.82813,-0.52344 17.00781,2.96875 22.3086,7.46484c5.33984,4.51953 9.39453,10.67187 10.70703,18.98828c0.3789,2.40234 0.29297,4.72656 0.44531,7.01172c0.46094,6.77344 2.86328,12.21094 5.92578,16.37891c4.15625,5.66406 9.73828,10.03125 17.65625,12.05078c9.125,2.32031 18.21094,0.04297 24.15234,-3.57032c4.67188,-2.83203 8.25782,-6.6289 10.96485,-11.34765c0.91406,-1.58594 1.71875,-3.25 2.42187,-5.16016c-0.02343,-0.125 0.04688,-0.23437 0.06641,-0.1289c-1.44531,8.48437 -4.34766,15.50781 -8.03125,21.73437c-3.62891,6.13281 -8.30469,11.51172 -13.76563,15.93359c-10.64062,8.60157 -25.21093,15.57813 -45.0664,13.89454c-8.94141,-0.75782 -16.40235,-3.36329 -23.00781,-6.75391c-6.60157,-3.39453 -12.05469,-7.78125 -16.89063,-12.8125c-4.85937,-5.0625 -8.73828,-11.11719 -11.66016,-18.10156c-2.9414,-7.01563 -4.90625,-15.16016 -4.90625,-24.79688c0,-2.50781 0.1836,-4.85937 0.44141,-7.00781c0.26953,-2.21094 0.90234,-3.98047 1.71875,-5.73828m34.42188,19.1875c1.4375,-1.46485 2.55078,-3.76953 2.23046,-6.76172c-0.24218,-2.29297 -1.2539,-3.92578 -2.67578,-5.16016c-1.26172,-1.08593 -2.91797,-2.17187 -5.54687,-2.16797c-4.54688,0.01954 -7.91016,3.42969 -8.21875,7.45704c-0.37891,4.86718 2.6289,7.86328 6.11719,8.79296c3.39062,0.91407 6.55078,-0.59765 8.09375,-2.16015"/>
   </g>
   <path id="svg_5" fill-rule="nonzero" fill="rgb(100%,100%,100%)" d="m86.10938,31.20313c0.12109,-1.41797 0.62109,-2.65625 1.27734,-3.6875c1.3125,-2.05469 3.66797,-3.73047 6.89062,-3.76954c4.07813,-0.04296 6.83594,2.48438 7.89844,5.42188c0.21485,0.59375 0.3086,1.1875 0.38281,1.90625c0.3125,2.91016 -0.80468,5.30859 -2.23046,6.76172c-1.74219,1.77344 -5.375,3.3164 -8.98438,1.90625c-2.91797,-1.13281 -5.57422,-4.04297 -5.23437,-8.53906"/>
   <path id="svg_6" fill-rule="nonzero" fill="rgb(13.729858%,12.159729%,12.548828%)" d="m23.21094,31.20313c0.30859,-4.02344 3.67187,-7.4375 8.21875,-7.45704c2.6289,-0.0039 4.28515,1.07813 5.54687,2.16797c1.42188,1.23438 2.4336,2.86719 2.67578,5.16016c0.32032,2.99219 -0.79296,5.29687 -2.23046,6.76172c-1.54297,1.5625 -4.70313,3.07031 -8.09375,2.16015c-3.48829,-0.92968 -6.4961,-3.92578 -6.11719,-8.79296"/>
  </g>
  <clipPath id="clip3">
   <path id="svg_7" d="m46,46l126,0l0,86l-126,0l0,-86zm0,0"/>
  </clipPath>
  <clipPath id="clip4">
   <path id="svg_8" d="m76.51953,37.60938c-8.94531,0.47656 -15.60547,4.51171 -20.39453,9.30468c-2.52734,2.53125 -4.60547,5.35547 -6.125,8.73438c-7.49609,16.65234 -4.23828,35.65234 14.40625,55.64453c4.76172,5.10156 10.28906,9.41797 16.89063,12.8125c6.60546,3.39062 14.0664,5.99609 23.00781,6.75391c19.85547,1.68359 34.42969,-5.29297 45.0664,-13.89454c5.46094,-4.42187 10.13672,-9.80078 13.76563,-15.93359c3.68359,-6.22656 6.58594,-13.25 8.03125,-21.73437c-0.01953,-0.10157 -0.08984,0.0039 -0.06641,0.1289c-0.70312,1.91016 -1.50781,3.57422 -2.42187,5.16016c-2.70703,4.72265 -6.29297,8.51562 -10.96485,11.34765c-5.9414,3.60938 -15.02734,5.88672 -24.15234,3.57032c-7.91797,-2.01563 -13.5,-6.38672 -17.65625,-12.05078c-3.05859,-4.17188 -5.46875,-9.60547 -5.92578,-16.37891c-0.15234,-2.28516 -0.06641,-4.60938 -0.44531,-7.01172c-1.3125,-8.31641 -5.36719,-14.46875 -10.71485,-18.99219c-4.93359,-4.1914 -11.52343,-7.51172 -20.37109,-7.51172c-0.63281,0 -1.27344,0.01563 -1.92969,0.05079"/>
  </clipPath>
  <clipPath id="clip5">
   <path id="svg_9" d="m87,37l85,0l0,77l-85,0l0,-77zm0,0"/>
  </clipPath>
  <clipPath id="clip6">
   <path id="svg_10" d="m76.51953,37.60938c-8.94531,0.47656 -15.60547,4.51171 -20.39453,9.30468c-2.52734,2.53125 -4.60547,5.35547 -6.125,8.73438c-7.49609,16.65234 -4.23828,35.65234 14.40625,55.64453c4.76172,5.10156 10.28906,9.41797 16.89063,12.8125c6.60546,3.39062 14.0664,5.99609 23.00781,6.75391c19.85547,1.68359 34.42969,-5.29297 45.0664,-13.89454c5.46094,-4.42187 10.13672,-9.80078 13.76563,-15.93359c3.68359,-6.22656 6.58594,-13.25 8.03125,-21.73437c-0.01953,-0.10157 -0.08984,0.0039 -0.06641,0.1289c-0.70312,1.91016 -1.50781,3.57422 -2.42187,5.16016c-2.70703,4.72265 -6.29297,8.51562 -10.96485,11.34765c-5.9414,3.60938 -15.02734,5.88672 -24.15234,3.57032c-7.91797,-2.01563 -13.5,-6.38672 -17.65625,-12.05078c-3.05859,-4.17188 -5.46875,-9.60547 -5.92578,-16.37891c-0.15234,-2.28516 -0.06641,-4.60938 -0.44531,-7.01172c-1.3125,-8.31641 -5.36719,-14.46875 -10.71485,-18.99219c-4.93359,-4.1914 -11.52343,-7.51172 -20.37109,-7.51172c-0.63281,0 -1.27344,0.01563 -1.92969,0.05079"/>
  </clipPath>
  <clipPath id="clip7">
   <path id="svg_11" d="m46,37l68,0l0,45l-68,0l0,-45zm0,0"/>
  </clipPath>
  <clipPath id="clip8">
   <path id="svg_12" d="m76.51953,37.60938c-8.94531,0.47656 -15.60547,4.51171 -20.39453,9.30468c-2.52734,2.53125 -4.60547,5.35547 -6.125,8.73438c-7.49609,16.65234 -4.23828,35.65234 14.40625,55.64453c4.76172,5.10156 10.28906,9.41797 16.89063,12.8125c6.60546,3.39062 14.0664,5.99609 23.00781,6.75391c19.85547,1.68359 34.42969,-5.29297 45.0664,-13.89454c5.46094,-4.42187 10.13672,-9.80078 13.76563,-15.93359c3.68359,-6.22656 6.58594,-13.25 8.03125,-21.73437c-0.01953,-0.10157 -0.08984,0.0039 -0.06641,0.1289c-0.70312,1.91016 -1.50781,3.57422 -2.42187,5.16016c-2.70703,4.72265 -6.29297,8.51562 -10.96485,11.34765c-5.9414,3.60938 -15.02734,5.88672 -24.15234,3.57032c-7.91797,-2.01563 -13.5,-6.38672 -17.65625,-12.05078c-3.05859,-4.17188 -5.46875,-9.60547 -5.92578,-16.37891c-0.15234,-2.28516 -0.06641,-4.60938 -0.44531,-7.01172c-1.3125,-8.31641 -5.36719,-14.46875 -10.71485,-18.99219c-4.93359,-4.1914 -11.52343,-7.51172 -20.37109,-7.51172c-0.63281,0 -1.27344,0.01563 -1.92969,0.05079"/>
  </clipPath>
  <clipPath id="clip10">
   <path id="svg_13" d="m191,2l26.86328,0l0,41l-26.86328,0l0,-41zm0,0"/>
  </clipPath>
  <clipPath id="clip11">
   <path id="svg_14" d="m141,0.12891l32,0l0,43.8125l-32,0l0,-43.8125zm0,0"/>
  </clipPath>
  <clipPath id="clip12">
   <path id="svg_15" d="m107,0.12891l23,0l0,22.87109l-23,0l0,-22.87109zm0,0"/>
  </clipPath>
  <clipPath id="clip13">
   <path id="svg_16" d="m0.81641,11l16.18359,0l0,29l-16.18359,0l0,-29zm0,0"/>
  </clipPath>
  <clipPath id="clip9">
   <rect id="svg_17" height="44" width="218" y="0" x="0"/>
  </clipPath>
  <g clip-path="url(#clip9)" id="surface8">
   <path id="svg_18" fill-rule="nonzero" fill="rgb(13.729858%,12.159729%,12.548828%)" d="m207.88672,21.60938c2.23047,-1.19532 5.55859,0.27734 5.25391,3.0625c-3.25782,0.49218 -3.29688,-2.25 -5.25391,-3.0625"/>
   <path id="svg_19" fill-rule="nonzero" fill="rgb(13.729858%,12.159729%,12.548828%)" d="m211.83594,35.61719c-7.3125,-1.48438 -13.9961,1.08594 -20.15235,0.44531c3.95704,-1.41016 17.95704,-5.72656 20.15235,-0.44531"/>
   <path id="svg_20" fill-rule="nonzero" fill="rgb(13.729858%,12.159729%,12.548828%)" d="m198.25391,25.98828c-0.16016,1.4336 -2.33594,0.88672 -2.1875,2.62891c1.28125,0.57812 2.2539,-0.28125 4.38281,0c-0.23828,-1.36719 -1.04297,-2.16797 -2.19531,-2.62891m2.19531,-7.88281c-2.44141,0.625 -3.83984,2.30078 -6.13672,3.0625c1.375,-1.98047 3.61328,-3.10156 6.13672,-3.9375c0.00781,-1.91016 0.12891,-3.9375 -0.44141,-5.26172l2.1875,0c0.67969,0.89844 0.67969,3.92188 0,4.81641c1.9375,-0.17969 3.39453,0.11718 4.38282,0.88281c-0.0625,0.77734 0.53125,0.91406 0.4375,1.74609c-0.90625,1.86328 -3.48829,2.07422 -4.82032,3.51172l0,4.81641c0.625,0.73437 2.58985,-0.88672 3.95313,-0.87891c0.35937,-1.23828 -0.625,-1.13281 -0.44531,-2.1914c1.3164,0.73437 3.8125,2.09765 3.0625,3.50781c-4.08985,1.1914 -9.5,3.29687 -14.45313,2.17969c-0.62109,-5.10157 7.62891,-4.84766 6.13672,-12.25391m3.94141,0c-0.51172,-0.37109 -1.17188,-0.58203 -2.19532,-0.4375c0.26172,0.90625 -0.54687,2.875 0.4336,3.0625c0.27734,-1.19141 1.83593,-1.09375 1.76172,-2.625"/>
   <path id="svg_21" fill-rule="nonzero" fill="rgb(100%,100%,100%)" d="m202.19531,17.66797c1.02344,-0.14453 1.6836,0.06641 2.19532,0.4375c0.07421,1.53516 -1.48438,1.43359 -1.76172,2.625c-0.98047,-0.19141 -0.16797,-2.15625 -0.4336,-3.0625"/>
   <path id="svg_22" fill-rule="nonzero" fill="rgb(100%,100%,100%)" d="m200.44922,28.61719c-2.12891,-0.28125 -3.10156,0.57812 -4.38281,0c-0.14453,-1.74219 2.02734,-1.19531 2.1875,-2.62891c1.15234,0.46094 1.95703,1.26172 2.19531,2.62891"/>
   <path id="svg_23" fill-rule="nonzero" fill="rgb(13.729858%,12.159729%,12.548828%)" d="m209.20703,10.66016c-6.28515,-1.85547 -12.11719,4.41797 -15.33594,0c5.19532,0.75 12.66407,-5.19532 15.33594,0"/>
   <g id="svg_24" clip-rule="nonzero" clip-path="url(#clip10)">
    <path id="svg_25" fill-rule="nonzero" fill="rgb(13.729858%,12.159729%,12.548828%)" d="m209.20703,36.50391c1.22266,0.46484 3.01172,1.91797 4.38281,0.86718c0.16797,-7.5 4.32422,-28.60546 -1.3125,-32.40625c-6.51562,-4.3789 -14.62109,3.15235 -20.59375,1.3125c6.67579,-3.53125 22.39454,-7.10156 24.96485,1.75c1.68359,5.78516 1.40625,20.51172 0.43359,28.03516c-0.35156,2.73047 -1.32812,5.28125 -3.0625,6.13281c-1.85937,-1.65625 -3.53906,-3.46875 -4.8125,-5.6914"/>
   </g>
   <path id="svg_26" fill-rule="nonzero" fill="rgb(13.729858%,12.159729%,12.548828%)" d="m188.61328,9.35156c4.83985,5.32032 0.5586,17.19922 1.75781,25.83203c-5.74609,-4.65234 0.50391,-17.86718 -1.75781,-25.83203"/>
   <path id="svg_27" fill-rule="nonzero" fill="rgb(100%,100%,100%)" d="m159.26953,11.08984c3.15235,-0.65234 5.28125,-2.30468 9.19922,-2.18359c-0.72266,5.33984 -7.58594,6.12891 -7.01172,11.39063c-1.02734,-0.01563 -1.27344,0.74218 -2.625,0.43359c-0.02734,-3.39063 0.75781,-5.95313 0.4375,-9.64063"/>
   <g id="svg_28" clip-rule="nonzero" clip-path="url(#clip11)">
    <path id="svg_29" fill-rule="nonzero" fill="rgb(13.729858%,12.159729%,12.548828%)" d="m156.20313,23.80469c-3.13672,-0.23047 -7.11719,4.17187 -7.00391,-1.32813c2.41797,1.11719 4.94531,-0.30078 7.00391,-0.86718l0,-8.76563c-5.78516,1.9375 -9.04688,6.4375 -12.26172,10.96094c-5.49219,-1.67578 -1.51563,-7.38672 0,-10.51172c1.25,0.79297 0.80859,3.28125 1.3164,4.8125c3.58985,-2.39453 6.90235,-5.07813 10.94532,-7.01563c0.27343,-4.79687 -0.41016,-8.6289 -2.62891,-10.94531c5.27734,-0.3125 5.98437,3.95313 5.69531,9.20703c3.75391,-1.09375 10.47266,-4.14062 13.14453,0c-1.26953,4.85547 -6.5,5.7461 -10.07422,8.31641c0.1211,1.77344 1.89844,1.89062 2.62891,3.0625c-1.25,1.53906 -4.27734,1.27734 -6.13672,2.19141c-0.21484,7.51953 0.41406,15.8789 -2.1914,21.01953c-0.37891,-6.47266 -0.5586,-13.15625 -0.4375,-20.13672m12.26953,-14.89844c-3.92188,-0.12109 -6.05078,1.53125 -9.20313,2.18359c0.32031,3.6875 -0.46484,6.25 -0.4375,9.64063c1.35156,0.30859 1.59766,-0.44922 2.62891,-0.43359c-0.57422,-5.26172 6.28125,-6.05079 7.01172,-11.39063"/>
   </g>
   <path id="svg_30" fill-rule="nonzero" fill="rgb(13.729858%,12.159729%,12.548828%)" d="m121.16797,24.67188c-3.72656,-1.15235 -7.37109,4.97656 -11.38281,2.1914c3.44922,-1.66406 7.17578,-3.04297 10.9375,-4.38672c0.26562,-1.5664 -1.33203,-1.28515 -1.3086,-2.62109c2.95313,1.66016 6.0586,0.45312 8.32032,2.62109c-1.25782,0.78907 -3.92188,0.17188 -4.8086,1.32813c-0.20703,5.82812 2.02344,13.90625 -1.75781,17.07031c-2.69141,0.21484 -2.91016,-2.05469 -4.82031,-2.62109c6.27343,0.1289 4.28125,-7.98438 4.82031,-13.58203"/>
   <path id="svg_31" fill-rule="nonzero" fill="rgb(13.729858%,12.159729%,12.548828%)" d="m113.28516,30.35938c1.79687,-0.75391 5.45312,0.38281 4.8164,3.51171c-3.14453,0.3711 -2.66406,-2.875 -4.8164,-3.51171"/>
   <g id="svg_32" clip-rule="nonzero" clip-path="url(#clip12)">
    <path id="svg_33" fill-rule="nonzero" fill="rgb(13.729858%,12.159729%,12.548828%)" d="m117.22656,18.98047c-3.92578,1.69141 -6.74218,6.4375 -10.07812,2.1875c4.15625,-0.28125 9.49219,-2.64063 9.19531,-8.75391c-0.51953,-1.08984 -3.19141,-0.01172 -3.05859,-1.7539c1.71093,0.25 2.53906,-0.38672 3.50781,-0.87891c0.10156,-3.60547 0.46875,-7.48437 -2.19531,-8.32422c1.69922,-1.64844 4.10937,-0.43359 5.26172,0.87891c0.125,2.17578 -0.07032,4.00781 -0.44532,5.6914c0.21094,0.61329 4.27735,-1.78515 4.82422,0.44141c-0.85156,1.9375 -3.5,2.04297 -5.69922,2.62109c-0.6914,2.08985 -1.40234,4.16016 -2.19531,6.14063c3.94531,-0.53516 9.54688,-4.58984 13.14063,-1.32031c-1.38672,2.97656 -2.39844,0.71093 -3.9375,0.8789c-2.51954,0.27344 -5.62891,1.03125 -8.32032,2.19141"/>
   </g>
   <path id="svg_34" fill-rule="nonzero" fill="rgb(13.729858%,12.159729%,12.548828%)" d="m93.13281,20.73047c-2.44922,-2.93359 4.30078,-7.15234 0.87891,-10.94922c1.03125,-1.28125 2.55078,0.63281 3.0625,1.30859c0.45312,2.9336 -0.98047,3.98438 -1.3125,6.14063c1.10156,0.48828 3.14844,-1.82422 4.82422,-2.19531c0.67578,-4.36328 -1.09375,-9.33203 0,-11.38282c1.375,-0.21484 1.71484,0.61719 2.62109,0.875c0.125,3.76954 -1.4375,5.85938 -1.30859,9.63282c0.88281,0.43359 6.36719,-3.57032 7.0039,0.4414c-2.15234,0.75782 -4.90234,0.92969 -7.0039,1.75c0.33594,2.52344 -0.63672,3.74219 -0.44922,6.125c0.72656,0.72657 1.32812,-0.03125 1.82422,-0.75c-1.8711,3.34766 -1.01172,12.46094 -1.82422,17.83985c-2.69141,-1.72266 -7.67188,-3.33594 -7.875,-6.13282c-0.19531,-2.90234 4.61719,-3.67968 6.13672,-7.44531c1.37109,-3.41406 -0.53906,-5.03906 0.875,-8.75781c-2.98828,0.65625 -4.53906,2.75391 -7.45313,3.5m2.62891,13.57422c1.37891,0.52344 2.32422,1.48437 3.94922,1.75781c0.64453,-1.5625 0.77734,-5.90625 0,-7.44531c-1.10156,2.10156 -3.44922,2.97265 -3.94922,5.6875"/>
   <path id="svg_35" fill-rule="nonzero" fill="rgb(13.729858%,12.159729%,12.548828%)" d="m103.65234,21.16797c-0.11718,0.15625 -0.24218,0.35156 -0.37109,0.54687c0.10938,-0.20703 0.23438,-0.39062 0.37109,-0.54687"/>
   <path id="svg_36" fill-rule="nonzero" fill="rgb(100%,100%,100%)" d="m99.71094,36.0625c-1.625,-0.27344 -2.57031,-1.23437 -3.94922,-1.75781c0.5,-2.71485 2.84375,-3.58594 3.94922,-5.6875c0.77344,1.53906 0.64453,5.88281 0,7.44531"/>
   <path id="svg_37" fill-rule="nonzero" fill="rgb(13.729858%,12.159729%,12.548828%)" d="m65.54297,13.72656c-3.07422,0.32422 -6.10938,2.38282 -9.19531,1.3086c2.49609,-1.59375 5.80859,-2.35547 8.3164,-3.94532c-1.1914,-2.58984 -0.27343,-7.30468 -3.49609,-7.88671c3.41016,-4.15626 5.53516,2.8164 5.25781,6.57812c0.42188,0.46484 3.63281,-1.53906 3.9375,0.87891c0.05469,1.95703 -2.53515,1.2539 -3.5039,2.18359c0.98828,4.41797 2.33203,8.47266 3.94921,12.26953c0.97266,-1.80469 2.64454,-5.22265 1.7461,-7.44531c4.10937,-0.29297 1.47265,8.07422 -0.88672,9.19922c2.46484,4.39062 4.99609,8.73828 9.64453,10.94922c1.42188,-1.22657 0.5625,-3.31641 0.43359,-5.25391c2.13282,1.66406 2.2461,5.33984 3.07032,8.3125c-7.23438,0.20313 -10.8711,-6.92187 -14.00782,-12.25781c-1.5039,0.55078 -1.67187,2.42578 -3.50781,2.6289c0.9375,-1.10156 1.64063,-2.44531 2.61719,-3.5039c-1.46484,-4.65625 -3.89453,-8.375 -4.375,-14.01563"/>
   <path id="svg_38" fill-rule="nonzero" fill="rgb(13.729858%,12.159729%,12.548828%)" d="m76.94141,7.59375c-1.07032,0.54688 -2.14063,1.08594 -3.51563,1.3125c0.50781,-0.65625 0.53906,-1.79297 1.31641,-2.1875c-0.39844,-0.76953 -0.81641,-1.52734 -2.1875,-1.32031c1.60937,-1.14063 4.96484,-0.30078 4.38672,2.19531"/>
   <path id="svg_39" fill-rule="nonzero" fill="rgb(13.729858%,12.159729%,12.548828%)" d="m66.15234,24.15234c0.08985,-0.13281 0.17969,-0.25 0.27344,-0.34765c-0.09375,0.13281 -0.18359,0.25 -0.27344,0.34765"/>
   <path id="svg_40" fill-rule="nonzero" fill="rgb(100%,100%,100%)" d="m62.04297,27.29688c0.60937,1.36328 -0.85938,4.38671 -2.63672,4.82421c-0.36719,-0.35937 -0.25391,-1.19921 -0.875,-1.3125c0.17969,-2.17968 2.79688,-1.88671 3.51172,-3.51171"/>
   <path id="svg_41" fill-rule="nonzero" fill="rgb(13.729858%,12.159729%,12.548828%)" d="m59.40625,32.12109c1.78125,-0.4375 3.24609,-3.46093 2.63672,-4.82031c-0.71875,1.625 -3.33203,1.33203 -3.51172,3.50781c0.62109,0.11329 0.50781,0.95313 0.875,1.3125m1.32422,2.62891c-1.57031,1.07031 -4.64844,1.94531 -7.01172,0.86719c-2.52344,-3.44141 2.03125,-4.40625 3.0625,-6.12891c1.71875,-2.85937 0.87891,-5.44922 1.75,-8.75781c0.14063,-1.16406 -2.44922,0.40625 -1.75,-1.31641c3.35156,0.35157 4.18359,-3.36328 7.44922,-1.74609c-0.29297,2.04687 -3.0625,1.59766 -4.38672,2.62891c1.91016,2.45703 -1.27734,5.13281 -1.75,7.88281c1.63672,-0.86328 3.07422,-1.90235 4.82031,-2.63281c0.5,-1.28125 -2.10547,-1.6211 -0.87109,-2.1875c1.48047,0.21875 2.77734,2.26171 4.10937,0.79296c-1.28906,1.875 -2.44531,6.85157 -4.55078,8.83594c1.19922,1.4375 4.8086,0.44531 4.38672,3.51953c-2.50781,0.14453 -3.88672,-0.80468 -5.25781,-1.75781m-3.94922,-3.94141c-1.03906,0.9961 -2.48437,1.59375 -2.62891,3.5c1.51563,1.46875 3.64844,-0.02343 4.82032,-1.32031c-1.26563,-0.1875 -1.02735,-1.87109 -2.19141,-2.17969"/>
   <path id="svg_42" fill-rule="nonzero" fill="rgb(100%,100%,100%)" d="m58.97266,32.98828c-1.17188,1.29688 -3.30469,2.78906 -4.82032,1.31641c0.14454,-1.90235 1.58985,-2.5 2.62891,-3.4961c1.16406,0.3086 0.92578,1.99219 2.19141,2.17969"/>
   <path id="svg_43" fill-rule="nonzero" fill="rgb(13.729858%,12.159729%,12.548828%)" d="m50.21484,15.47266c7.4961,3.43359 0.87891,16.36328 -3.49609,18.82812c2.52344,-4.8789 6.56641,-12.36328 3.49609,-18.82812"/>
   <path id="svg_44" fill-rule="nonzero" fill="rgb(13.729858%,12.159729%,12.548828%)" d="m28.31641,23.80469c-3.91016,0.69531 -12.75391,10.4375 -12.70703,1.74219c0.59375,0.13671 0.35937,1.10156 0.44531,1.75c4.88281,-1.38672 8.21484,-4.33594 12.69531,-6.12891c0.12109,-6.73047 1.30078,-13.50781 0,-19.26563c6.05469,2.64454 1.17969,11.70313 1.75391,17.95313c0.73828,0.25391 4.84765,-1.10156 3.50781,-3.07031c1.06641,0.68359 2.58984,0.91015 3.49609,1.7539c-1.5,2.4336 -5.40234,2.47266 -7.44531,4.38282c-0.79687,6.45703 2.53125,13.40234 -0.42578,17.95312c-3.15625,-3.08594 -0.45313,-10.98828 -1.32031,-17.07031"/>
   <path id="svg_45" fill-rule="nonzero" fill="rgb(13.729858%,12.159729%,12.548828%)" d="m27.44531,11.53125c-4.20703,0.46094 -3.05468,-1.73828 -5.69922,-2.625c2.40625,-1.37109 5.3086,0.52734 5.69922,2.625"/>
   <path id="svg_46" fill-rule="nonzero" fill="rgb(13.729858%,12.159729%,12.548828%)" d="m19.55859,17.66797c2.20313,-1.82031 6.17188,0.35156 5.25782,2.62891c-3.54297,-0.07422 -2.5625,-2.05079 -5.25782,-2.62891"/>
   <path id="svg_47" fill-rule="nonzero" fill="rgb(13.729858%,12.159729%,12.548828%)" d="m14.29297,21.16797c-0.36719,0.5625 -0.82422,1.31641 -1.23438,1.49609c0.29297,-0.6875 0.69922,-1.20312 1.23438,-1.49609"/>
   <path id="svg_48" fill-rule="nonzero" fill="rgb(13.729858%,12.159729%,12.548828%)" d="m16.48828,4.96484c-2.0625,2.46875 -4.76562,4.28907 -8.3164,5.25391c1.80468,-1.875 4.76171,-3.83984 4.375,-6.56641c2.07421,-0.32421 2.88281,0.6211 3.9414,1.3125"/>
   <g id="svg_49" clip-rule="nonzero" clip-path="url(#clip13)">
    <path id="svg_50" fill-rule="nonzero" fill="rgb(13.729858%,12.159729%,12.548828%)" d="m1.16016,22.47656c-0.45703,-1.23437 -0.45703,-1.8164 0,-3.0625c0.59375,0.14063 0.36718,1.10157 0.43359,1.75391c4.02344,-1.24219 6.59766,-3.92188 10.08203,-5.69531c0.14453,-1.7461 -0.78515,-2.42578 -0.4414,-4.38282c1.88671,0.89844 1.85156,3.69922 4.82031,3.51172c-1.23047,0.90235 -5.125,5.44922 -3.50781,7.875c0.14843,0.23047 0.32421,0.26953 0.50781,0.1875c-1.6875,3.875 -0.09766,13.10547 -1.82031,17.33594c-2.86719,-2.73437 -0.33204,-8.66406 -0.8711,-13.13281c-2.32422,-0.5625 -2.95703,4.33594 -6.13281,4.3789c-0.99609,-5.12109 4.03516,-7.90234 5.6875,-11.83203c-2.55078,-0.5 -4.55469,5.17578 -8.75781,3.0625m9.20312,-2.625c-0.59765,2.48047 -2.23047,3.91407 -2.63672,6.56641c3.08985,0.31641 3.8086,-4.0625 2.63672,-6.56641"/>
   </g>
   <path id="svg_51" fill-rule="nonzero" fill="rgb(100%,100%,100%)" d="m7.72656,26.41797c0.40625,-2.65234 2.03907,-4.08594 2.63672,-6.5625c1.17188,2.5 0.45313,6.87891 -2.63672,6.5625"/>
  </g>
 </defs>
 <g>
  <title>background</title>
  <rect fill="none" id="canvas_background" height="262" width="252" y="-1" x="-1"/>
 </g>
 <g>
  <title>Layer 1</title>
  <g id="surface1">
   <path id="svg_52" fill-rule="nonzero" fill="rgb(13.729858%,12.159729%,12.548828%)" d="m11.4375,153.92188l4.04688,0l0,8.66796l7.28515,-8.66796l4.96875,0l-8.29687,9.50781l8.64453,10.66406l-5.28906,0l-7.25782,-9.36328l-0.05468,0l0,9.36328l-4.04688,0l0,-20.17187zm0,0"/>
   <path id="svg_53" fill-rule="nonzero" fill="rgb(13.729858%,12.159729%,12.548828%)" d="m38.72656,157.96875l-0.05468,0l-2.91797,8.32422l5.89453,0l-2.92188,-8.32422zm-2.22265,-4.04687l4.5664,0l7.91797,20.17187l-4.48047,0l-1.73437,-4.62109l-8.17969,0l-1.76172,4.62109l-4.1914,0l7.86328,-20.17187zm0,0"/>
   <path id="svg_54" fill-rule="nonzero" fill="rgb(13.729858%,12.159729%,12.548828%)" d="m66.28125,173.80859c-1.47266,0.34375 -3.0625,0.63672 -4.59766,0.63672c-6.52734,0 -11.0664,-3.26953 -11.0664,-10.08984c0,-6.90625 4.21875,-10.78125 11.0664,-10.78125c1.33204,0 3.09766,0.25781 4.57032,0.83594l-0.28907,3.41406c-1.53125,-0.86719 -2.92187,-1.07031 -4.36718,-1.07031c-4.16016,0 -6.76172,3.17968 -6.76172,7.3125c0,4.10156 2.54687,7.19531 6.84765,7.19531c1.58985,0 3.46875,-0.34375 4.42579,-0.83594l0.17187,3.38281zm0,0"/>
   <path id="svg_55" fill-rule="nonzero" fill="rgb(13.729858%,12.159729%,12.548828%)" d="m80.97266,157.09766l-5.78125,0l0,-3.17578l15.60937,0l0,3.17578l-5.78125,0l0,16.99609l-4.04687,0l0,-16.99609zm0,0"/>
   <path id="svg_56" fill-rule="nonzero" fill="rgb(13.729858%,12.159729%,12.548828%)" d="m90.46484,159.21094l3.44141,0l0,3.38281l0.05469,0c0.17578,-1.39062 1.76562,-3.73047 4.07812,-3.73047c0.375,0 0.78125,0 1.1836,0.11328l0,3.90235c-0.34766,-0.19922 -1.03907,-0.31641 -1.73438,-0.31641c-3.14844,0 -3.14844,3.92969 -3.14844,6.07031l0,5.46485l-3.875,0l0,-14.88672zm0,0"/>
   <path id="svg_57" fill-rule="nonzero" fill="rgb(13.729858%,12.159729%,12.548828%)" d="m106.82813,171.60938c1.1875,0 2.10937,-0.51954 2.71484,-1.33204c0.63672,-0.83593 0.8125,-1.90625 0.8125,-3.05859l-1.67578,0c-1.73438,0 -4.3086,0.28906 -4.3086,2.57031c0,1.26953 1.07032,1.82032 2.45704,1.82032m-4.53907,-11.6211c1.50391,-0.6914 3.52735,-1.125 5.17578,-1.125c4.53516,0 6.41407,1.87891 6.41407,6.26953l0,1.91016c0,1.50391 0.03125,2.62891 0.0625,3.73047c0.02734,1.125 0.08593,2.16406 0.17187,3.32031l-3.41015,0c-0.14844,-0.78125 -0.14844,-1.76172 -0.17579,-2.22266l-0.05468,0c-0.89844,1.64454 -2.83594,2.57032 -4.59766,2.57032c-2.62891,0 -5.20312,-1.58985 -5.20312,-4.42188c0,-2.22656 1.07031,-3.52344 2.54296,-4.24609c1.47657,-0.72656 3.38282,-0.8711 5,-0.8711l2.14063,0c0,-2.39453 -1.07031,-3.20703 -3.35156,-3.20703c-1.64844,0 -3.29688,0.63672 -4.59766,1.6211l-0.11719,-3.32813zm0,0"/>
   <path id="svg_58" fill-rule="nonzero" fill="rgb(13.729858%,12.159729%,12.548828%)" d="m124.0625,171.4375c2.57031,0 3.40625,-2.71875 3.40625,-4.82422c0,-2.08594 -0.98047,-4.74219 -3.46875,-4.74219c-2.51172,0 -3.20703,2.7461 -3.20703,4.74219c0,2.05078 0.72266,4.82422 3.26953,4.82422m3.55469,0.98047l-0.0586,0c-1.15625,1.44922 -2.74609,2.02734 -4.5664,2.02734c-4.57031,0 -6.24219,-3.76172 -6.24219,-7.83203c0,-4.10937 1.67188,-7.75 6.24219,-7.75c1.9375,0 3.29297,0.66406 4.44922,2.08203l0.05859,0l0,-8.52734l3.875,0l0,21.67578l-3.75781,0l0,-1.67578zm0,0"/>
   <path id="svg_59" fill-rule="nonzero" fill="rgb(13.729858%,12.159729%,12.548828%)" d="m135.45313,159.21094l3.875,0l0,14.88672l-3.875,0l0,-14.88672zm0,-6.41797l3.875,0l0,3.69922l-3.875,0l0,-3.69922zm0,0"/>
   <path id="svg_60" fill-rule="nonzero" fill="rgb(13.729858%,12.159729%,12.548828%)" d="m143.40625,159.21094l3.67188,0l0,2.01953l0.05859,0c1.21094,-1.70313 2.85937,-2.36719 4.88281,-2.36719c3.52735,0 5.0586,2.48828 5.0586,5.83594l0,9.39844l-3.875,0l0,-7.94922c0,-1.82422 -0.02735,-4.27735 -2.51563,-4.27735c-2.80078,0 -3.40625,3.03125 -3.40625,4.94141l0,7.28516l-3.875,0l0,-14.88672zm0,0"/>
   <path id="svg_61" fill-rule="nonzero" fill="rgb(13.729858%,12.159729%,12.548828%)" d="m170.86719,166.49219c0,-2.54297 -0.98047,-4.6211 -3.23438,-4.6211c-2.6289,0 -3.46875,2.42579 -3.46875,4.70704c0,2.02343 1.06641,4.51171 3.29688,4.51171c2.42578,0 3.40625,-2.10937 3.40625,-4.59765m3.875,-7.28125l0,13.4375c0,4.05078 -1.6211,7.86328 -7.86328,7.86328c-1.53125,0 -3.29297,-0.23047 -5.14453,-1.01172l0.3164,-3.29687c1.1875,0.63671 3.125,1.30468 4.33985,1.30468c4.27343,0 4.47656,-3.21093 4.47656,-5.78515l-0.0586,0c-0.71875,1.27343 -2.45703,2.375 -4.62109,2.375c-4.39453,0 -6.07031,-3.52735 -6.07031,-7.51953c0,-3.58204 1.84765,-7.71485 6.30078,-7.71485c1.96484,0 3.5,0.66406 4.56641,2.36719l0.05859,0l0,-2.01953l3.69922,0zm0,0"/>
   <path id="svg_62" fill-rule="nonzero" fill="rgb(13.729858%,12.159729%,12.548828%)" d="m201.80469,173.80859c-1.47266,0.34375 -3.0625,0.63672 -4.59766,0.63672c-6.53125,0 -11.0664,-3.26953 -11.0664,-10.08984c0,-6.90625 4.21875,-10.78125 11.0664,-10.78125c1.33203,0 3.09375,0.25781 4.57031,0.83594l-0.28906,3.41406c-1.53515,-0.86719 -2.92187,-1.07031 -4.36719,-1.07031c-4.16015,0 -6.76171,3.17968 -6.76171,7.3125c0,4.10156 2.54296,7.19531 6.84765,7.19531c1.58985,0 3.46875,-0.34375 4.42578,-0.83594l0.17188,3.38281zm0,0"/>
   <path id="svg_63" fill-rule="nonzero" fill="rgb(13.729858%,12.159729%,12.548828%)" d="m211.26172,171.4375c2.97656,0 3.75781,-2.66016 3.75781,-5.14453c0,-2.28516 -1.21484,-4.42188 -3.75781,-4.42188c-2.51172,0 -3.72656,2.19532 -3.72656,4.42188c0,2.45703 0.78125,5.14453 3.72656,5.14453m0,-12.57422c4.42187,0 7.80469,2.97656 7.80469,7.89063c0,4.27734 -2.86328,7.6914 -7.80469,7.6914c-4.91406,0 -7.77344,-3.41406 -7.77344,-7.6914c0,-4.91407 3.38281,-7.89063 7.77344,-7.89063"/>
   <path id="svg_64" fill-rule="nonzero" fill="rgb(13.729858%,12.159729%,12.548828%)" d="m222.10938,170.05078l4.04296,0l0,4.04688l-4.04296,0l0,-4.04688zm0,0"/>
   <use x="-193" y="-235" id="svg_65" transform="matrix(1,0,0,1,240,272) " xlink:href="#surface5"/>
   <g id="svg_66" clip-rule="nonzero" clip-path="url(#clip3)">
    <g id="svg_67" clip-rule="nonzero" clip-path="url(#clip4)">
     <path id="svg_68" fill-rule="nonzero" fill="rgb(92.939758%,10.978699%,14.118958%)" d="m68.99219,73.53906c0,0 -1.67188,63.00782 81.12109,46.76563c73.875,-14.4961 -31.30469,26.72265 -31.30469,26.72265l-87.23046,-19.08593c0,0 -13.33204,-9.73438 -13.33204,-11.07422c0,-1.33594 -0.60156,-51.34375 3.59766,-53.82813c4.19922,-2.48047 17.36719,-16.79687 18.32813,-16.98828c0.95312,-0.1914 28.82031,27.48828 28.82031,27.48828"/>
    </g>
   </g>
   <g id="svg_69" clip-rule="nonzero" clip-path="url(#clip5)">
    <g id="svg_70" clip-rule="nonzero" clip-path="url(#clip6)">
     <path id="svg_71" fill-rule="nonzero" fill="rgb(25%,72.549438%,23.526001%)" d="m88.26953,79.45313c0,0 8.5,31.85546 42.86328,33.95703c32.41016,1.98437 52.95703,-40.73047 57.73047,-62.875c4.76953,-22.14063 -36.83984,-10.58985 -36.83984,-10.58985l-50.77735,-11.26562l-13.93359,5.72656l0.95703,45.04688zm0,0"/>
    </g>
   </g>
   <g id="svg_72" clip-rule="nonzero" clip-path="url(#clip7)">
    <g id="svg_73" clip-rule="nonzero" clip-path="url(#clip8)">
     <path id="svg_74" fill-rule="nonzero" fill="rgb(13.729858%,12.159729%,12.548828%)" d="m113.65625,38.22656l-25.50391,37.67969l-17.97265,5.6875l-35.54688,-20.08203l23.85938,-32.26172l55.16406,8.97656zm0,0"/>
    </g>
   </g>
   <path id="svg_75" fill-rule="nonzero" fill="rgb(92.939758%,10.978699%,14.118958%)" d="m170.09375,54.87109c-2.18359,-9.22265 -7.70703,-18.6289 -16.41797,-27.97265c-4.78515,-5.12891 -10.09375,-9.15235 -16.21094,-12.29688c-7.25781,-3.72656 -14.48437,-5.84765 -22.10156,-6.49609c-1.90625,-0.16406 -3.80859,-0.24219 -5.66406,-0.24219c-14.01563,0 -26.32813,4.44922 -37.64453,13.59375c-5.28516,4.28516 -9.72266,9.42578 -13.19141,15.28125c-1.04297,1.75781 -1.98437,3.52344 -2.82812,5.31641c1.48828,-1.32031 3.10547,-2.50781 4.85937,-3.57031c5.08985,-3.08985 11.59375,-4.86719 17.83985,-4.86719c2.78906,0 5.54296,0.33984 8.19531,1.01562c7.86719,2.00391 14.08984,6.25 19.03125,12.97657c3.80469,5.1875 5.94922,11.13281 6.39844,17.66796c0.05468,0.82813 0.07812,1.66016 0.10156,2.46094c0.04687,1.5 0.08984,2.90625 0.3164,4.33203c1.10157,6.9961 4.42188,12.88282 9.8711,17.50782c5.49219,4.65234 11.63672,6.91796 18.78125,6.91796c0.58984,0 1.19531,-0.01171 1.80469,-0.04296c7.15234,-0.38282 13.47265,-3.27735 18.79296,-8.59375c2.45704,-2.46485 4.29688,-5.07813 5.61329,-8.00391c3.63671,-8.07422 4.46093,-16.48828 2.45312,-24.98438"/>
   <path id="svg_76" fill-rule="nonzero" fill="rgb(74.848938%,57.608032%,35.704041%)" stroke-width="0.1" stroke="rgb(13.729858%,12.159729%,12.548828%)" stroke-miterlimit="3.864" d="m142.96875,62.73437l2.23047,6.86329l7.21484,0l-5.83593,4.23828l2.22656,6.87109l-5.83594,-4.24219l-5.83984,4.24219l2.23047,-6.87109l-5.83594,-4.23828l7.21484,0l2.23047,-6.86329zm0,0.00001"/>
   <path id="svg_77" fill-rule="nonzero" fill="rgb(74.848938%,57.608032%,35.704041%)" stroke-width="0.1" stroke="rgb(13.729858%,12.159729%,12.548828%)" stroke-miterlimit="3.864" d="m121.78906,56.63672l1.80469,1.93359l2.38281,-1.11718l-1.27344,2.30468l1.80079,1.92969l-2.58985,-0.50781l-1.28125,2.30469l-0.32031,-2.60938l-2.58203,-0.50391l2.38281,-1.11328l-0.32422,-2.62109zm0,0"/>
   <path id="svg_78" fill-rule="nonzero" fill="rgb(74.848938%,57.608032%,35.704041%)" stroke-width="0.1" stroke="rgb(13.729858%,12.159729%,12.548828%)" stroke-miterlimit="3.864" d="m132.62109,47.90234l0.51172,2.58594l2.61719,0.31641l-2.30469,1.28515l0.50782,2.58594l-1.9336,-1.79297l-2.30078,1.27344l1.11328,-2.39062l-1.93359,-1.79297l2.61719,0.32031l1.10546,-2.39063zm0,0"/>
   <path id="svg_79" fill-rule="nonzero" fill="rgb(74.848938%,57.608032%,35.704041%)" stroke-width="0.1" stroke="rgb(13.729858%,12.159729%,12.548828%)" stroke-miterlimit="3.864" d="m146.44141,46.21875l-0.9375,2.46094l2.05468,1.65234l-2.63671,-0.12891l-0.9336,2.46094l-0.69531,-2.53906l-2.62891,-0.13281l2.20703,-1.44141l-0.6914,-2.54297l2.05469,1.65235l2.20703,-1.44141zm0,0"/>
   <path id="svg_80" fill-rule="nonzero" fill="rgb(74.848938%,57.608032%,35.704041%)" stroke-width="0.1" stroke="rgb(13.729858%,12.159729%,12.548828%)" stroke-miterlimit="3.864" d="m159.05469,52.09766l-2.10156,1.59765l0.86718,2.48438l-2.16015,-1.50391l-2.10157,1.58984l0.76172,-2.51953l-2.16797,-1.5039l2.63672,-0.05078l0.76172,-2.52735l0.86328,2.48828l2.64063,-0.05468zm0,0"/>
   <path id="svg_81" fill-rule="nonzero" fill="rgb(92.939758%,10.978699%,14.118958%)" d="m50.08594,50.38281c0,0 4.70703,-10.44531 18.01953,-15.35937c13.3125,-4.91406 9.82812,-11.88281 9.82812,-11.88281c0,0 11.26954,-12.07813 0.82032,-6.34766c-10.44141,5.73828 -23.13672,19.25391 -28.66797,33.58984"/>
   <path id="svg_82" fill-rule="nonzero" fill="rgb(92.939758%,10.978699%,14.118958%)" d="m227.40234,186.68359l-216.875,0l0,-0.78906l216.875,0l0,0.78906zm0,0"/>
   <use x="-193" y="-235" id="svg_83" transform="matrix(1,0,0,1,202,424) " xlink:href="#surface8"/>
  </g>
 </g>
</svg>