<?xml version="1.0" encoding="utf-8"?>
<!-- Generator: Adobe Illustrator 24.2.3, SVG Export Plug-In . SVG Version: 6.00 Build 0)  -->
<svg version="1.1" id="Layer_1" xmlns="http://www.w3.org/2000/svg" xmlns:xlink="http://www.w3.org/1999/xlink" x="0px" y="0px"
	 viewBox="0 0 179 78.6" style="enable-background:new 0 0 179 78.6;" xml:space="preserve">
<style type="text/css">
	.st0{fill:#FFFFFF;}
	.st1{fill:#80CC28;}
</style>
<g>
	<path id="svg_1_2_" class="st0" d="M130,40.8c0,0.8-0.1,1.3-0.3,1.6c-0.2,0.3-0.4,0.4-0.8,0.4h-5.2v-5.2c0-0.4,0-0.7,0.1-1
		c0-0.3,0.1-0.5,0.2-0.7c0.2-0.3,0.4-0.4,0.8-0.4h5.2V40.8z M123.8,34.6c-1,0-1.8,0.3-2.3,0.8c-0.5,0.6-0.8,1.3-0.8,2.3v6.2h9.3
		c1,0,1.7-0.3,2.3-0.8c0.5-0.5,0.8-1.3,0.8-2.3v-6.2H123.8z M115.9,38.7h-5.5c-0.3-0.1-0.5-0.3-0.6-0.6c-0.1-0.3-0.2-0.8-0.2-1.5v-1
		h5.2c0.4,0,0.6,0.1,0.8,0.4c0.2,0.4,0.3,0.9,0.3,1.6V38.7z M115.9,34.6h-9.3v9.3h3.1v-4.1h2.1c0.1,0.1,0.2,0.2,0.4,0.3
		c0.2,0.1,0.5,0.3,0.8,0.6c0.3,0.3,0.6,0.7,1,1.2c0.4,0.5,0.7,1.2,1.1,2h3.1l-2.6-4.2h3.4v-2.1c0-1-0.3-1.7-0.8-2.3
		C117.6,34.9,116.9,34.6,115.9,34.6 M93.4,35.5c-0.5,0.5-0.8,1.3-0.8,2.3h3.1v-1.1c0-0.1,0.1-0.2,0.1-0.3c0-0.1,0.1-0.2,0.1-0.2
		c0.2-0.3,0.4-0.4,0.8-0.4h1.7V44h3.2v-8.3h3.4v-1.1h-9.3C94.7,34.6,93.9,34.9,93.4,35.5 M80.3,35.5c-0.5,0.6-0.8,1.3-0.8,2.3V44
		h11.4v-1h-8.3v-2.8h8.3v-1.1h-8.3v-1.3c0-0.8,0.1-1.3,0.3-1.6c0.2-0.3,0.4-0.4,0.8-0.4h4.1v2.1h3.1v-3.1h-8.3
		C81.6,34.6,80.8,34.9,80.3,35.5 M75,38.8h-5.2c-0.4,0-0.6-0.2-0.8-0.5c-0.2-0.3-0.3-0.8-0.3-1.6v-1H74c0.4,0,0.6,0.1,0.8,0.4
		c0.1,0.2,0.1,0.4,0.2,0.7c0,0.3,0.1,0.6,0.1,1V38.8z M75,34.6h-9.3v9.3h3.1v-4.1h9.4v-2.1c0-1-0.3-1.7-0.8-2.3
		C76.8,34.9,76,34.6,75,34.6 M34.1,66.6c1.1,0.4,2.2,0.7,3.5,1c0,0,0.5,0.1,1.3,0.1c-2.2-0.7-4-1.6-5.5-2.7
		c-1.7-4.7-0.6-9.1-0.6-9.1C34.1,47.5,43,40.8,43,40.8c14-12.2,4.1-22,3.4-22.6c1.8,4.5,2.1,11.4-7.2,19.3c0,0-9.8,7.1-11.2,16.1
		c0,0-0.1,0.4-0.2,1.1c-0.3-3.1,0.2-5.4,0.2-5.4c1.3-8.3,10.2-14.9,10.2-14.9c14-12.2,4.1-22,3.4-22.6c1.8,4.4,2.1,11.4-7.2,19.3
		c0,0-9.8,7.1-11.2,16.1c0,0-2.5,10.2,5.5,16.5c1.6,4.2,5.3,8.5,13.6,10.3c0,0,0.5,0.1,1.3,0.1C38.4,72.5,35.6,69.6,34.1,66.6
		 M61.1,46.7c7.4,26.6-12.2,27.6-17.5,27.4c0.7,0.2,1.4,0.4,2.2,0.6c0,0,24.8,3.1,17.1-25.3L61.1,46.7z M58.1,42.9l-1.8-2.6
		c7.4,26.6-12.2,27.6-17.5,27.4c0.7,0.2,1.4,0.4,2.2,0.6C41,68.2,65.8,71.4,58.1,42.9"/>
	<path id="svg_2_1_" class="st1" d="M73.3,22.6C65.4,7,46.7,0.2,30.6,7.3C14.4,14.3,6.7,32.7,12.8,49.1c-3.8-15.5,4-32,19.2-38.6
		S64.5,9.2,73.3,22.6 M7.1,38.6c0-18.6,13.5-34,31.2-37.2c-19.5,1.1-35,17.3-35,37.2c0,19.8,15.5,36,35,37.2
		C20.5,72.7,7.1,57.2,7.1,38.6 M173.2,51.6h3v-3.2h-3V51.6z M163.9,24.8h-3v3h3V24.8z M166.9,27.7h-3v3h3V27.7z M143.2,40.9
		c-0.3,0-0.5-0.1-0.7-0.4c-0.2-0.3-0.3-0.9-0.3-1.6v-3.1h6.3v5.2H143.2z M150.8,43.2c0.5-0.6,0.8-1.3,0.8-2.3v-6.3h-12.5v4.2
		c0,1,0.3,1.7,0.8,2.3c0.6,0.6,1.3,0.8,2.3,0.8h6.2c0,0.2-0.1,0.4-0.2,0.6c-0.2,0.3-0.4,0.4-0.8,0.4h-8.3v1h9.4
		C149.5,44,150.3,43.7,150.8,43.2 M176.1,34.6h-3v6.1c0,0.7-0.1,1.3-0.3,1.6c-0.2,0.3-0.4,0.4-0.8,0.4h-5.1v-8.1h-3.1v6.1
		c0,0.7-0.1,1.2-0.3,1.6c-0.2,0.3-0.4,0.4-0.8,0.4h-5.1v-8.1h-3v2.9h0v6.1c0,0.8-0.1,1.3-0.2,1.6c-0.2,0.3-0.4,0.4-0.8,0.4H65.6v1
		h89.1c1,0,1.8-0.3,2.3-0.8c0.5-0.5,0.7-1.2,0.8-2H173c1,0,1.7-0.3,2.2-0.8c0.5-0.5,0.8-1.3,0.8-2.2"/>
	<path id="svg_3_2_" class="st0" d="M67.6,49.8c-0.1,0.1-0.3,0.1-0.4,0.1h-0.8v-1h0.8c0.2,0,0.3,0,0.4,0.1c0.2,0.1,0.2,0.2,0.2,0.4
		C67.8,49.6,67.7,49.8,67.6,49.8 M67.9,48.8c-0.2-0.1-0.4-0.2-0.6-0.2H66v3h0.4v-1.3h0.9c0.3,0,0.5-0.1,0.7-0.3
		c0.1-0.2,0.2-0.4,0.2-0.6C68.2,49.2,68.1,48.9,67.9,48.8"/>
	<path id="svg_4_2_" class="st0" d="M72.2,49.8c0.1-0.1,0.2-0.2,0.4-0.2c0.2,0,0.4,0.1,0.5,0.3c0.1,0.1,0.1,0.2,0.1,0.4h-1.2
		C72.1,50.1,72.1,50,72.2,49.8 M73.1,51.1c-0.1,0.1-0.3,0.2-0.5,0.2c-0.2,0-0.4-0.1-0.4-0.2c-0.1-0.1-0.1-0.3-0.2-0.5h1.6
		c0-0.2,0-0.4,0-0.5c0-0.1-0.1-0.3-0.1-0.4c-0.1-0.1-0.2-0.2-0.3-0.3c-0.1-0.1-0.3-0.1-0.4-0.1c-0.3,0-0.6,0.1-0.7,0.3
		c-0.2,0.2-0.3,0.5-0.3,0.9c0,0.4,0.1,0.6,0.3,0.8c0.2,0.2,0.4,0.3,0.7,0.3c0.1,0,0.2,0,0.3,0c0.2,0,0.3-0.1,0.4-0.2
		c0.1-0.1,0.1-0.1,0.2-0.2c0.1-0.1,0.1-0.2,0.1-0.3h-0.4C73.2,51,73.2,51.1,73.1,51.1"/>
	<path id="svg_5_2_" class="st0" d="M77.7,48.8h-0.4v0.6H77v0.3h0.3v1.4c0,0.1,0,0.3,0.1,0.3c0.1,0.1,0.2,0.1,0.4,0.1
		c0.1,0,0.1,0,0.1,0c0,0,0.1,0,0.1,0v-0.3c0,0-0.1,0-0.1,0h-0.1c-0.1,0-0.1,0-0.1,0c-0.1,0-0.1-0.1-0.1-0.2v-1.4H78v-0.3h-0.3V48.8z
		"/>
	<path id="svg_6_2_" class="st0" d="M82.5,49.3c-0.1,0-0.3,0.1-0.4,0.2c-0.1,0.1-0.2,0.2-0.2,0.3v-0.4h-0.3v2.2h0.4v-1.3
		c0-0.2,0.1-0.3,0.1-0.4c0.1-0.1,0.2-0.2,0.4-0.2h0.1c0,0,0,0,0.1,0v-0.4C82.6,49.3,82.5,49.3,82.5,49.3
		C82.5,49.3,82.5,49.3,82.5,49.3"/>
	<path id="svg_7_1_" class="st0" d="M87.4,51c-0.1,0.2-0.3,0.3-0.5,0.3c-0.2,0-0.4-0.1-0.5-0.2c-0.1-0.2-0.2-0.4-0.2-0.6
		c0-0.2,0.1-0.4,0.2-0.6c0.1-0.2,0.3-0.3,0.5-0.3c0.2,0,0.4,0.1,0.5,0.3c0.1,0.1,0.1,0.3,0.1,0.5C87.5,50.7,87.5,50.9,87.4,51
		 M87.6,49.6c-0.2-0.2-0.4-0.3-0.7-0.3c-0.3,0-0.6,0.1-0.7,0.3s-0.3,0.5-0.3,0.9c0,0.3,0.1,0.6,0.3,0.8c0.2,0.2,0.4,0.3,0.7,0.3
		c0.4,0,0.6-0.1,0.8-0.3c0.2-0.2,0.3-0.5,0.3-0.9C87.9,50.1,87.8,49.8,87.6,49.6"/>
	<path id="svg_8_1_" class="st0" d="M95.8,51.6h0.4v-3h-0.4V51.6z"/>
	<path id="svg_9_1_" class="st0" d="M99.8,51.6h0.4v-2.2h-0.4V51.6z"/>
	<path id="svg_10_1_" class="st0" d="M99.8,49h0.4v-0.4h-0.4V49z"/>
	<path id="svg_11_1_" class="st0" d="M105,49.3c-0.1,0-0.3,0-0.4,0.1c-0.1,0.1-0.2,0.1-0.3,0.3v-0.3h-0.4v2.2h0.4v-1.1
		c0-0.1,0-0.3,0-0.3c0-0.1,0.1-0.2,0.1-0.2c0.1-0.1,0.2-0.2,0.3-0.2c0.1,0,0.1,0,0.2,0c0.2,0,0.3,0.1,0.4,0.2c0,0.1,0.1,0.2,0.1,0.3
		v1.4h0.4v-1.4c0-0.2,0-0.4-0.1-0.5C105.5,49.4,105.3,49.3,105,49.3"/>
	<path id="svg_12_1_" class="st0" d="M111.1,49.4h-0.5l-0.9,0.9v-1.7h-0.4v3h0.4v-0.8l0.3-0.3l0.7,1.1h0.5l-0.9-1.4L111.1,49.4z"/>
	<path id="svg_13_1_" class="st0" d="M119.9,49.3c-0.2,0-0.3,0-0.4,0.1c-0.1,0-0.1,0.1-0.2,0.2v-1.1h-0.4v3h0.4v-1.2
		c0-0.3,0.1-0.5,0.2-0.6c0.1-0.1,0.3-0.2,0.4-0.2c0.2,0,0.3,0.1,0.4,0.2c0,0.1,0.1,0.2,0.1,0.4v1.4h0.4v-1.4c0-0.2,0-0.4-0.1-0.5
		C120.4,49.4,120.2,49.3,119.9,49.3"/>
	<path id="svg_14_1_" class="st0" d="M125.7,51c-0.1,0.2-0.3,0.3-0.5,0.3c-0.2,0-0.4-0.1-0.5-0.2c-0.1-0.2-0.1-0.4-0.1-0.6
		c0-0.2,0.1-0.4,0.1-0.6c0.1-0.2,0.3-0.3,0.5-0.3c0.2,0,0.4,0.1,0.5,0.3c0.1,0.1,0.1,0.3,0.1,0.5C125.8,50.7,125.8,50.9,125.7,51
		 M125.9,49.6c-0.2-0.2-0.4-0.3-0.7-0.3c-0.3,0-0.6,0.1-0.7,0.3c-0.2,0.2-0.3,0.5-0.3,0.9c0,0.3,0.1,0.6,0.3,0.8
		c0.2,0.2,0.4,0.3,0.7,0.3c0.4,0,0.6-0.1,0.8-0.3c0.2-0.2,0.3-0.5,0.3-0.9C126.2,50.1,126.1,49.8,125.9,49.6"/>
	<path id="svg_15_1_" class="st0" d="M129.8,51.6h0.4v-3h-0.4V51.6z"/>
	<path id="svg_16_1_" class="st0" d="M135.1,51.1c-0.1,0.1-0.2,0.2-0.4,0.2c-0.2,0-0.4-0.1-0.5-0.2c-0.1-0.2-0.1-0.4-0.1-0.6
		c0-0.3,0.1-0.5,0.2-0.6c0.1-0.1,0.3-0.2,0.4-0.2c0.2,0,0.3,0.1,0.4,0.2c0.1,0.1,0.2,0.3,0.2,0.6C135.3,50.7,135.2,51,135.1,51.1
		 M135.2,48.6v1.1c-0.1-0.1-0.2-0.2-0.2-0.2c-0.1-0.1-0.3-0.1-0.4-0.1c-0.3,0-0.5,0.1-0.7,0.4c-0.2,0.2-0.2,0.5-0.2,0.8
		c0,0.3,0.1,0.6,0.3,0.8c0.2,0.2,0.4,0.3,0.6,0.3c0.2,0,0.3,0,0.4-0.1c0.1-0.1,0.2-0.2,0.3-0.3v0.3h0.3v-3H135.2z"/>
	<path id="svg_17_1_" class="st0" d="M139.3,51.6h0.4v-2.2h-0.4V51.6z"/>
	<path id="svg_18_2_" class="st0" d="M139.3,49h0.4v-0.4h-0.4V49z"/>
	<path id="svg_19_2_" class="st0" d="M144.4,49.3c-0.1,0-0.3,0-0.4,0.1c-0.1,0.1-0.2,0.1-0.3,0.3v-0.3h-0.3v2.2h0.4v-1.1
		c0-0.1,0-0.3,0-0.3c0-0.1,0.1-0.2,0.1-0.2c0.1-0.1,0.2-0.2,0.3-0.2c0.1,0,0.1,0,0.2,0c0.2,0,0.3,0.1,0.4,0.2c0,0.1,0.1,0.2,0.1,0.3
		v1.4h0.4v-1.4c0-0.2,0-0.4-0.1-0.5C144.9,49.4,144.7,49.3,144.4,49.3"/>
	<path id="svg_20_2_" class="st0" d="M150.1,50.9c-0.1,0.2-0.3,0.4-0.6,0.4c-0.2,0-0.3-0.1-0.4-0.2c-0.1-0.1-0.2-0.3-0.2-0.6
		c0-0.2,0-0.4,0.1-0.5c0.1-0.2,0.3-0.4,0.5-0.4c0.2,0,0.3,0.1,0.4,0.2c0.1,0.1,0.2,0.3,0.2,0.6C150.2,50.6,150.2,50.8,150.1,50.9
		 M150.2,49.4v0.3c-0.1-0.1-0.1-0.2-0.2-0.2c-0.1-0.1-0.3-0.1-0.4-0.1c-0.3,0-0.5,0.1-0.6,0.3c-0.2,0.2-0.3,0.5-0.3,0.9
		c0,0.4,0.1,0.7,0.3,0.8c0.2,0.2,0.4,0.3,0.6,0.3c0.2,0,0.3,0,0.4-0.1c0.1-0.1,0.2-0.1,0.3-0.2c0,0.3,0,0.5-0.1,0.6
		c-0.1,0.2-0.3,0.3-0.6,0.3c-0.2,0-0.3,0-0.4-0.1c-0.1-0.1-0.1-0.1-0.1-0.2h-0.4c0,0.2,0.1,0.4,0.3,0.5c0.2,0.1,0.4,0.2,0.6,0.2
		c0.4,0,0.7-0.1,0.9-0.4c0.1-0.2,0.1-0.4,0.1-0.7v-2H150.2z"/>
	<path id="svg_21_2_" class="st0" d="M159.4,49.6c0.2,0,0.3,0,0.4,0.1c0.1,0.1,0.1,0.2,0.1,0.3h0.4c0-0.3-0.1-0.5-0.3-0.6
		c-0.2-0.1-0.4-0.2-0.6-0.2c-0.3,0-0.5,0.1-0.7,0.3c-0.2,0.2-0.3,0.5-0.3,0.9c0,0.3,0.1,0.6,0.3,0.8c0.2,0.2,0.4,0.3,0.7,0.3
		c0.3,0,0.5-0.1,0.6-0.2c0.2-0.1,0.3-0.3,0.3-0.6h-0.4c0,0.2-0.1,0.3-0.2,0.4c-0.1,0.1-0.2,0.1-0.4,0.1c-0.2,0-0.3-0.1-0.4-0.2
		c-0.1-0.1-0.1-0.3-0.1-0.6c0-0.2,0-0.4,0.1-0.5C159,49.8,159.1,49.6,159.4,49.6"/>
	<path id="svg_22_2_" class="st0" d="M165.1,51c-0.1,0.2-0.3,0.3-0.5,0.3c-0.2,0-0.4-0.1-0.5-0.2c-0.1-0.2-0.1-0.4-0.1-0.6
		c0-0.2,0-0.4,0.1-0.6c0.1-0.2,0.3-0.3,0.5-0.3c0.3,0,0.4,0.1,0.5,0.3c0.1,0.1,0.1,0.3,0.1,0.5C165.2,50.7,165.2,50.9,165.1,51
		 M165.3,49.6c-0.2-0.2-0.4-0.3-0.7-0.3c-0.3,0-0.6,0.1-0.7,0.3c-0.2,0.2-0.3,0.5-0.3,0.9c0,0.3,0.1,0.6,0.3,0.8
		c0.2,0.2,0.4,0.3,0.7,0.3c0.4,0,0.6-0.1,0.8-0.3c0.2-0.2,0.3-0.5,0.3-0.9C165.6,50.1,165.5,49.8,165.3,49.6"/>
	<path id="svg_23_2_" class="st0" d="M169.3,51.6h0.4v-0.4h-0.4V51.6z"/>
</g>
</svg>
