<?xml version="1.0" encoding="utf-8"?>
<!-- Generator: Adobe Illustrator 23.0.1, SVG Export Plug-In . SVG Version: 6.00 Build 0)  -->
<svg version="1.1" id="Capa_1" xmlns="http://www.w3.org/2000/svg" xmlns:xlink="http://www.w3.org/1999/xlink" x="0px" y="0px"
	 viewBox="0 0 512 512" style="enable-background:new 0 0 512 512;" xml:space="preserve">
<style type="text/css">
	.st0{fill:#FFFFFF;}
</style>
<g>
	<g>
		<path class="st0" d="M503.6,205.8c-7.4-11.3-18.8-18.9-32.1-21.5c-13.3-2.6-26.7,0.2-37.8,7.8l-84.5,57.8
			c-7.8-11.9-21.1-19.7-36.4-19.7h-53.6c-9.1-8.9-29.4-22.7-67.7-22.7c-48.8,0-69.8,20.7-74,25.5l-17,17.4l-9.1-17.5L0,280.7
			L88.4,450l91.5-47.8l-9.5-18.1h166.4l154.2-110C513,258.4,518.6,228.4,503.6,205.8z M101.1,409.4l-60.6-116l38.2-19.9l60.6,116
			L101.1,409.4z M473.5,249.6L327.1,354H154.7l-39.5-75.6l24.2-24.7l0.3-0.2l0.6-0.8c1.6-1.7,15.4-15.1,51.3-15.1
			c34.7,0,46.8,14,48.3,15.9l3.8,6.8h69.2c7.4,0,13.3,6,13.3,13.3s-6,13.3-13.3,13.3h-90.3V317h90.3c21,0,38.6-15,42.6-34.9
			l95.3-65.2c4.4-3,9.8-4.1,15.1-3.1c5.3,1,9.8,4.1,12.8,8.6C484.5,231.4,482.3,243.3,473.5,249.6z"/>
	</g>
</g>
<g>
	<g>
		<path class="st0" d="M341.3,62c-32.1,0-59,22.5-65.9,52.6H121.7l0,49.2h30.1v-19.2h26.6v25.2h30.1v-25.2h67.1
			c6.9,30.1,33.8,52.6,65.9,52.6c37.3,0,67.6-30.3,67.6-67.6C408.9,92.3,378.6,62,341.3,62z M341.3,167.2
			c-20.7,0-37.5-16.8-37.5-37.5c0-20.7,16.8-37.5,37.5-37.5s37.5,16.8,37.5,37.5C378.8,150.3,362,167.2,341.3,167.2z"/>
	</g>
</g>
</svg>
