<?xml version="1.0" encoding="utf-8"?>
<!-- Generator: Adobe Illustrator 23.0.1, SVG Export Plug-In . SVG Version: 6.00 Build 0)  -->
<svg version="1.1" id="Layer_1" xmlns="http://www.w3.org/2000/svg" xmlns:xlink="http://www.w3.org/1999/xlink" x="0px" y="0px"
	 viewBox="0 0 29.4 41.9" style="enable-background:new 0 0 29.4 41.9;" xml:space="preserve">
<style type="text/css">
	.st0{fill:#80CC28;}
</style>
<g>
	<g>
		<g>
			<path class="st0" d="M14.7,0C6.6,0,0,6.6,0,14.7c0,2.7,0.8,5.4,2.2,7.7l11.7,18.8c0.2,0.4,0.6,0.6,1,0.6c0,0,0,0,0,0
				c0.4,0,0.8-0.2,1-0.6l11.4-19c1.4-2.3,2.1-4.9,2.1-7.5C29.4,6.6,22.8,0,14.7,0z M25.2,21L14.9,38.3L4.3,21.2
				c-1.2-1.9-1.8-4.2-1.8-6.4C2.4,8,8,2.4,14.7,2.4S27,8,27,14.7C27,16.9,26.4,19.1,25.2,21z"/>
		</g>
	</g>
	<g>
		<g>
			<path class="st0" d="M14.7,7.4c-4.1,0-7.4,3.3-7.4,7.4c0,4,3.2,7.4,7.4,7.4c4.2,0,7.4-3.4,7.4-7.4C22.1,10.7,18.8,7.4,14.7,7.4z
				 M14.7,19.6c-2.7,0-4.9-2.2-4.9-4.9c0-2.7,2.2-4.9,4.9-4.9s4.9,2.2,4.9,4.9C19.6,17.4,17.5,19.6,14.7,19.6z"/>
		</g>
	</g>
</g>
</svg>
