<svg xmlns="http://www.w3.org/2000/svg" xmlns:xlink="http://www.w3.org/1999/xlink" width="398.99248775348656" height="178.59399665622414" version="1.1" style=""><rect id="backgroundrect" width="100%" height="100%" x="0" y="0" fill="none" stroke="none"/>

<g class="currentLayer" style=""><title>Layer 1</title><g id="surface1" class="">
<path style=" stroke:none;fill-rule:nonzero;fill:rgb(13.729858%,12.159729%,12.548828%);fill-opacity:1;" d="M289.5414988878784,94.31645061901855 C289.5414988878784,96.01566861901853 289.3383738878784,97.23832461901856 288.9438428878784,97.99613761901855 C288.5883738878784,98.63285661901858 287.9985308878784,98.95316861901853 287.17431188787845,98.95316861901853 L275.61181188787845,98.95316861901853 L275.61181188787845,87.35551261901855 C275.61181188787845,86.53129361901853 275.6547808878784,85.81645061901855 275.75243688787845,85.20316861901853 C275.8500928878784,84.58988761901855 275.98681188787845,84.08598161901858 276.1821238878784,83.67973161901858 C276.54931188787845,83.04691861901853 277.14306188787845,82.72270061901855 277.9477488878784,82.72270061901855 L289.5414988878784,82.72270061901855 zM275.61181188787845,80.39066861901853 C273.3657178878784,80.39066861901853 271.6508738878784,81.01176261901855 270.4516548878784,82.24613761901855 C269.2485308878784,83.48441861901853 268.6508738878784,85.19145061901855 268.6508738878784,87.35551261901855 L268.6508738878784,101.24613761901855 L289.5414988878784,101.24613761901855 C291.7329048878784,101.24613761901855 293.4360308878784,100.63285661901858 294.6704048878784,99.40629361901853 C295.89306188787845,98.17973161901858 296.50243688787845,96.48832461901856 296.50243688787845,94.31645061901855 L296.50243688787845,80.39066861901853 zM257.8657178878784,89.61723161901858 L245.6352488878784,89.61723161901858 C245.05321788787842,89.45316861901853 244.6196238878784,89.01957461901856 244.34618688787845,88.31254361901853 C244.06884288787842,87.59770061901855 243.93993688787845,86.50395061901855 243.93993688787845,85.01957461901856 L243.93993688787845,82.72270061901855 L255.53368688787845,82.72270061901855 C256.36181188787845,82.72270061901855 256.9477488878784,83.04691861901853 257.29931188787845,83.67973161901858 C257.67431188787845,84.57816861901853 257.8657178878784,85.80473161901858 257.8657178878784,87.35551261901855 zM257.8657178878784,80.39066861901853 L236.97509288787842,80.39066861901853 L236.97509288787842,101.24613761901855 L243.8696238878784,101.24613761901855 L243.8696238878784,92.01957461901856 L248.5727488878784,92.01957461901856 C248.7289988878784,92.16020061901855 249.0727488878784,92.37113761901855 249.58056188787845,92.64066861901853 C250.08446788787842,92.91020061901855 250.6821238878784,93.37113761901855 251.38134288787842,94.03520061901855 C252.0727488878784,94.68754361901853 252.83446788787842,95.60160661901858 253.64306188787845,96.76176261901855 C254.45556188787845,97.90629361901853 255.2446238878784,99.43754361901853 256.0297808878784,101.32035661901858 L263.0297808878784,101.32035661901858 L257.2641548878784,91.98832461901856 L264.83056188787845,91.98832461901856 L264.83056188787845,87.35551261901855 C264.83056188787845,85.19145061901855 264.2289988878784,83.48441861901853 263.0297808878784,82.24613761901855 C261.83056188787845,81.01176261901855 260.1079048878784,80.39066861901853 257.8657178878784,80.39066861901853 M207.4946238878784,82.24613761901855 C206.2914988878784,83.47660661901858 205.69384288787842,85.18754361901853 205.69384288787842,87.35160661901858 L212.68993688787845,87.35160661901858 L212.68993688787845,84.88285661901858 C212.73681188787845,84.62113761901855 212.81103088787842,84.39848161901858 212.88915488787842,84.21098161901858 C212.96728088787842,84.01957461901856 213.08056188787845,83.84379361901853 213.22509288787842,83.67973161901858 C213.6039988878784,83.04691861901853 214.18993688787845,82.72270061901855 214.98681188787845,82.72270061901855 L218.8071238878784,82.72270061901855 L218.8071238878784,101.35941861901853 L225.9164988878784,101.35941861901853 L225.9164988878784,82.75785661901858 L233.54931188787845,82.75785661901858 L233.54931188787845,80.39066861901853 L212.65868688787845,80.39066861901853 C210.4164988878784,80.39066861901853 208.6977488878784,81.01176261901855 207.4946238878784,82.24613761901855 M178.15868688787845,82.28129361901853 C176.95556188787845,83.51566861901853 176.35790488787842,85.22660661901858 176.35790488787842,87.39066861901853 L176.35790488787842,101.28520061901855 L201.87743688787845,101.28520061901855 L201.87743688787845,98.98832461901856 L183.27978088787842,98.98832461901856 L183.27978088787842,92.72660661901858 L201.87743688787845,92.72660661901858 L201.87743688787845,90.32035661901858 L183.31493688787845,90.32035661901858 L183.31493688787845,87.39066861901853 C183.31493688787845,85.67191861901853 183.52196788787842,84.44535661901858 183.92040488787842,83.71488761901855 C184.2914988878784,83.07816861901853 184.8696238878784,82.75785661901858 185.65478088787842,82.75785661901858 L194.87743688787845,82.75785661901858 L194.87743688787845,87.39066861901853 L201.87743688787845,87.39066861901853 L201.87743688787845,80.42582461901856 L183.31493688787845,80.42582461901856 C181.08446788787842,80.42582461901856 179.3539988878784,81.04691861901853 178.15868688787845,82.28129361901853 M166.31884288787842,89.69145061901855 L154.76415488787842,89.69145061901855 C153.93603088787842,89.69145061901855 153.3305618878784,89.34770061901855 152.9555618878784,88.66020061901855 C152.57274888787845,87.97660661901858 152.38915488787842,86.76566861901853 152.38915488787842,85.01957461901856 L152.38915488787842,82.72270061901855 L163.98290488787842,82.72270061901855 C164.81103088787842,82.72270061901855 165.39696788787842,83.04691861901853 165.7524368878784,83.67973161901858 C165.9399368878784,84.08598161901858 166.07665488787842,84.58988761901855 166.1743118878784,85.20316861901853 C166.27196788787842,85.81645061901855 166.31884288787842,86.53129361901853 166.31884288787842,87.35551261901855 zM166.31884288787842,80.39066861901853 L145.42040488787842,80.39066861901853 L145.42040488787842,101.24613761901855 L152.31103088787842,101.24613761901855 L152.31103088787842,91.98832461901856 L173.27978088787842,91.98832461901856 L173.27978088787842,87.35551261901855 C173.27978088787842,85.19145061901855 172.6821238878784,83.48441861901853 171.47509288787842,82.24613761901855 C170.27196788787842,81.01176261901855 168.5493118878784,80.39066861901853 166.31884288787842,80.39066861901853 M74.65087388787842,151.94926261901855 C77.02978088787842,152.79301261901855 79.60790488787842,153.53520061901855 82.44384288787842,154.14066861901853 C82.44384288787842,154.14066861901853 83.51024888787842,154.27348161901858 85.30321788787842,154.33598161901858 C80.31884288787842,152.77348161901858 76.30712388787842,150.67582461901856 73.07665488787842,148.26176261901855 C69.36571788787842,137.79301261901855 71.73681188787842,127.79301261901855 71.73681188787842,127.79301261901855 C74.71337388787842,109.18363761901855 94.62353088787842,94.32035661901858 94.62353088787842,94.32035661901858 C125.97118688787842,67.07035661901858 103.79931188787842,45.08598161901858 102.29149888787842,43.66410661901858 C106.39696788787842,53.64066861901853 106.97118688787842,69.25004361901853 86.19774888787842,86.92582461901856 C86.19774888787842,86.92582461901856 64.28368688787842,102.94535661901858 61.00634288787842,123.00004361901853 C61.00634288787842,123.00004361901853 60.78759288787842,123.89848161901858 60.57665488787842,125.44145061901855 C59.85790488787842,118.59379361901853 61.10399888787842,113.36332461901856 61.10399888787842,113.36332461901856 C64.07665488787842,94.75785661901858 83.99071788787842,79.89848161901858 83.99071788787842,79.89848161901858 C115.33446788787842,52.636762619018555 93.15478088787842,30.660200619018553 91.65868688787842,29.238324619018556 C95.76415488787842,39.20316861901853 96.33446788787842,54.824262619018555 75.56884288787842,72.50004361901853 C75.56884288787842,72.50004361901853 53.65087388787842,88.51957461901856 50.37353088787842,108.56645061901855 C50.37353088787842,108.56645061901855 44.80321788787842,131.52738761901855 62.64306188787842,145.48832461901856 C66.20165488787842,154.92973161901858 74.52978088787842,164.62113761901855 93.07665488787842,168.5664506190185 C93.07665488787842,168.5664506190185 94.14306188787842,168.69926261901855 95.93212388787842,168.7695746190186 C84.38134288787842,165.13285661901864 78.04149888787842,158.6758246190186 74.65087388787842,151.94926261901855 M135.22509288787842,107.42973161901858 C151.70946788787842,167.10551261901855 107.79149888787842,169.24613761901855 95.93212388787842,168.7695746190186 C97.48681188787842,169.25785661901864 99.12743688787842,169.68754361901847 100.85399888787842,170.07035661901864 C100.85399888787842,170.07035661901864 156.3930618878784,177.12113761901855 139.15087388787842,113.34770061901855 zM128.51415488787842,98.91801261901855 L124.59228088787842,93.00004361901853 C141.08446788787842,152.67973161901858 97.15868688787842,154.81645061901855 85.30321788787842,154.33598161901858 C86.85399888787842,154.83207461901856 88.48681188787842,155.25785661901858 90.22899888787842,155.64066861901853 C90.22899888787842,155.64066861901853 145.75634288787842,162.68754361901847 128.51415488787842,98.91801261901855 " id="svg_1"/>
<path style=" stroke:none;fill-rule:nonzero;fill:rgb(50%,79.998779%,15.684509%);fill-opacity:1;" d="M162.60790488787842,53.33598161901858 C144.92040488787842,18.574262619018555 102.95946788787842,3.234418619018527 66.77587388787842,19.078168619018527 C30.584467887878418,34.92191861901853 13.400873887878419,76.15629361901853 26.94774888787842,112.73051261901855 C18.48290488787842,77.92973161901858 35.92821788787842,41.02348161901858 69.87353088787842,26.160200619018553 C103.81884288787842,11.296918619018527 142.77196788787842,23.503950619018553 162.60790488787842,53.33598161901858 M14.143061887878417,89.30863761901855 C14.143061887878417,47.64066861901853 44.29149888787842,13.015668619018527 83.96728088787842,6.043012619018555 C40.17821788787842,8.582074619018556 5.455561887878417,44.88285661901858 5.455561887878417,89.30863761901855 C5.455561887878417,133.73832461901856 40.17821788787842,170.04691861901847 83.96728088787842,172.57816861901847 C44.29149888787842,165.60551261901855 14.143061887878417,130.98051261901855 14.143061887878417,89.30863761901855 M386.3852488878784,118.51566861901853 L393.0454048878784,118.51566861901853 L393.0454048878784,111.43754361901853 L386.3852488878784,111.43754361901853 zM365.47118688787845,58.425824619018556 L358.8071238878784,58.425824619018556 L358.8071238878784,65.08598161901858 L365.47118688787845,65.08598161901858 zM372.18993688787845,64.90629361901853 L365.5375928878784,64.90629361901853 L365.5375928878784,71.56254361901853 L372.18993688787845,71.56254361901853 zM319.1391548878784,94.33988761901855 C318.4829048878784,94.33988761901855 317.9594678878784,94.04301261901855 317.5766548878784,93.44926261901855 C317.17431188787845,92.68754361901853 316.9750928878784,91.46879361901853 316.9750928878784,89.78129361901853 L316.9750928878784,82.76957461901856 L330.9985308878784,82.76957461901856 L330.9985308878784,94.33988761901855 zM336.1938428878784,99.57035661901858 C337.4047808878784,98.33598161901858 338.0063428878784,96.62895061901855 338.0063428878784,94.44535661901858 L338.0063428878784,80.38676261901855 L309.9633738878784,80.38676261901855 L309.9633738878784,89.78129361901853 C309.9633738878784,91.94535661901858 310.5844678878784,93.64848161901858 311.8071238878784,94.88676261901855 C313.04931188787845,96.13285661901858 314.7758738878784,96.76176261901855 316.9750928878784,96.76176261901855 L330.7797808878784,96.76176261901855 C330.7133738878784,97.30473161901858 330.5922808878784,97.76176261901855 330.42431188787845,98.14066861901853 C330.0727488878784,98.78520061901855 329.4750928878784,99.10160661901858 328.6391548878784,99.10160661901858 L309.9633738878784,99.10160661901858 L309.9633738878784,101.41801261901855 L330.9985308878784,101.41801261901855 C333.2446238878784,101.41801261901855 334.9750928878784,100.80082461901856 336.1938428878784,99.57035661901858 M392.79931188787845,80.29691861901853 L385.97118688787845,80.29691861901853 L385.97118688787845,93.96488761901855 C385.97118688787845,95.62504361901853 385.7641548878784,96.83207461901856 385.37743688787845,97.57426261901855 C385.03368688787845,98.20316861901853 384.4594678878784,98.51566861901853 383.6547808878784,98.51566861901853 L372.3071238878784,98.51566861901853 L372.3071238878784,80.29691861901853 L365.47118688787845,80.29691861901853 L365.47118688787845,94.04301261901855 C365.4594678878784,95.66801261901855 365.26806188787845,96.84379361901853 364.87743688787845,97.57426261901855 C364.5375928878784,98.20316861901853 363.9516548878784,98.51566861901853 363.14306188787845,98.51566861901853 L351.79931188787845,98.51566861901853 L351.79931188787845,80.29691861901853 L344.9672808878784,80.29691861901853 L344.9672808878784,86.68754361901853 L344.90868688787845,86.68754361901853 L344.90868688787845,100.35160661901858 C344.90868688787845,102.04301261901855 344.7172808878784,103.24223161901858 344.3579048878784,103.96098161901858 C344.0063428878784,104.58598161901858 343.43993688787845,104.89848161901858 342.6547808878784,104.89848161901858 L145.29540488787842,104.89848161901858 L145.29540488787842,107.15238761901855 L344.90868688787845,107.15238761901855 C347.12743688787845,107.15238761901855 348.8344678878784,106.55082461901856 350.00243688787845,105.35160661901858 C351.1079048878784,104.23051261901855 351.6704048878784,102.68754361901853 351.7407178878784,100.76566861901853 L385.97118688787845,100.76566861901853 C388.1235308878784,100.76566861901853 389.79931188787845,100.16410661901858 390.9985308878784,98.96488761901855 C392.2016548878784,97.75785661901858 392.79931188787845,96.09379361901853 392.79931188787845,93.96488761901855 " id="svg_2"/>
<path style=" stroke:none;fill-rule:nonzero;fill:rgb(13.729858%,12.159729%,12.548828%);fill-opacity:1;" d="M149.76415488787842,114.46488761901855 C149.51415488787842,114.64066861901853 149.18603088787842,114.72660661901858 148.77587388787845,114.72660661901858 L146.98290488787842,114.72660661901858 L146.98290488787842,112.39848161901858 L148.77587388787845,112.39848161901858 C149.1274368878784,112.39848161901858 149.40087388787845,112.44926261901855 149.59228088787842,112.53910661901858 C149.95946788787842,112.72270061901855 150.14696788787842,113.05473161901858 150.14696788787842,113.54301261901855 C150.14696788787842,113.98441861901853 150.0180618878784,114.28910661901858 149.76415488787842,114.46488761901855 M150.51415488787842,112.12113761901855 C150.14696788787842,111.78520061901855 149.6743118878784,111.61723161901858 149.07665488787842,111.61723161901858 L146.07274888787842,111.61723161901858 L146.07274888787842,118.32035661901858 L146.98290488787842,118.32035661901858 L146.98290488787842,115.49613761901855 L149.07665488787842,115.49613761901855 C149.7524368878784,115.49613761901855 150.2524368878784,115.29691861901853 150.57665488787842,114.91410661901858 C150.89696788787842,114.51957461901856 151.05712388787845,114.06645061901855 151.05712388787845,113.54301261901855 C151.05712388787845,112.93363761901855 150.8774368878784,112.45316861901853 150.51415488787842,112.12113761901855 " id="svg_3"/>
<path style=" stroke:none;fill-rule:nonzero;fill:rgb(13.729858%,12.159729%,12.548828%);fill-opacity:1;" d="M160.1586868878784,114.44926261901855 C160.4086868878784,114.17973161901858 160.71728088787842,114.04691861901853 161.10009288787842,114.04691861901853 C161.61962388787845,114.04691861901853 161.99071788787842,114.24613761901855 162.21337388787845,114.64066861901853 C162.33446788787842,114.84770061901855 162.41259288787842,115.13676261901855 162.45165488787842,115.50004361901853 L159.7524368878784,115.50004361901853 C159.7680618878784,115.06645061901855 159.90087388787845,114.73051261901855 160.1586868878784,114.44926261901855 M162.11571788787842,117.37113761901855 C161.8618118878784,117.65238761901855 161.5180618878784,117.79301261901855 161.09228088787842,117.79301261901855 C160.63524888787845,117.79301261901855 160.2993118878784,117.64457461901856 160.08446788787842,117.33988761901855 C159.86962388787845,117.03910661901858 159.7524368878784,116.64066861901853 159.74071788787842,116.14066861901853 L163.29149888787845,116.14066861901853 C163.29149888787845,115.65238761901855 163.26415488787842,115.28910661901858 163.2211868878784,115.06645061901855 C163.16649888787845,114.74223161901858 163.05321788787842,114.44926261901855 162.89696788787842,114.19926261901855 C162.7211868878784,113.94535661901858 162.47509288787842,113.73832461901856 162.15087388787845,113.57035661901858 C161.82665488787842,113.41410661901858 161.49462388787845,113.32426261901855 161.15087388787845,113.32426261901855 C160.46337388787845,113.32426261901855 159.91259288787842,113.57035661901858 159.48290488787842,114.06254361901853 C159.06103088787842,114.55082461901856 158.85399888787845,115.19535661901858 158.85399888787845,115.97660661901858 C158.85399888787845,116.76957461901856 159.06103088787842,117.39457461901856 159.48290488787842,117.83598161901858 C159.90478088787842,118.27738761901855 160.41259288787842,118.50004361901853 161.02196788787842,118.50004361901853 C161.27196788787842,118.50004361901853 161.49071788787842,118.47270061901855 161.68603088787842,118.42191861901853 C162.06103088787842,118.33988761901855 162.36571788787842,118.17973161901858 162.6118118878784,117.92973161901858 C162.75634288787842,117.79301261901855 162.89696788787842,117.61332461901856 163.01024888787845,117.39457461901856 C163.13134288787842,117.17191861901853 163.20165488787842,116.97270061901855 163.22509288787842,116.79301261901855 L162.41259288787842,116.79301261901855 C162.35790488787842,117.01566861901853 162.2524368878784,117.20707461901856 162.11571788787842,117.37113761901855 " id="svg_4"/>
<path style=" stroke:none;fill-rule:nonzero;fill:rgb(13.729858%,12.159729%,12.548828%);fill-opacity:1;" d="M172.3383738878784,112.06645061901855 L171.50634288787842,112.06645061901855 L171.50634288787842,113.43363761901855 L170.85009288787842,113.43363761901855 L170.85009288787842,114.10941861901853 L171.50634288787842,114.10941861901853 L171.50634288787842,117.34379361901853 C171.50634288787842,117.66410661901858 171.58446788787842,117.91410661901858 171.7133738878784,118.11332461901856 C171.85790488787842,118.30473161901858 172.11571788787842,118.41020061901855 172.49853088787842,118.41020061901855 C172.61571788787842,118.41020061901855 172.72509288787842,118.39848161901858 172.83056188787845,118.38676261901855 C172.93603088787842,118.37895061901855 173.03368688787845,118.35551261901855 173.1196238878784,118.32426261901855 L173.1196238878784,117.67582461901856 C173.0571238878784,117.68363761901855 173.00634288787842,117.69145061901855 172.96728088787842,117.69145061901855 L172.83056188787845,117.69145061901855 C172.6821238878784,117.69145061901855 172.58056188787845,117.67582461901856 172.51806188787845,117.64457461901856 C172.4008738878784,117.58598161901858 172.3383738878784,117.47660661901858 172.3383738878784,117.30082461901856 L172.3383738878784,114.10941861901853 L173.1196238878784,114.10941861901853 L173.1196238878784,113.43363761901855 L172.3383738878784,113.43363761901855 zM172.3383738878784,112.06645061901855 " id="svg_5"/>
<path style=" stroke:none;fill-rule:nonzero;fill:rgb(13.729858%,12.159729%,12.548828%);fill-opacity:1;" d="M183.10009288787842,113.32426261901855 C182.76806188787845,113.32426261901855 182.4789988878784,113.44535661901858 182.23681188787845,113.67582461901856 C181.98290488787842,113.91801261901855 181.83056188787845,114.11723161901858 181.76415488787842,114.28129361901853 L181.76415488787842,113.43363761901855 L180.98290488787842,113.43363761901855 L180.98290488787842,118.32035661901858 L181.80321788787842,118.32035661901858 L181.80321788787842,115.51566861901853 C181.80321788787842,115.16801261901855 181.9164988878784,114.85551261901855 182.13134288787842,114.59379361901853 C182.36181188787845,114.32816861901853 182.67821788787842,114.19535661901858 183.09618688787845,114.19535661901858 L183.2289988878784,114.19535661901858 C183.26806188787845,114.19926261901855 183.31493688787845,114.20707461901856 183.36181188787845,114.21488761901855 L183.36181188787845,113.34770061901855 C183.2758738878784,113.33988761901855 183.21728088787842,113.33598161901858 183.17040488787842,113.33598161901858 C183.13134288787842,113.32816861901853 183.11181188787845,113.32426261901855 183.10009288787842,113.32426261901855 " id="svg_6"/>
<path style=" stroke:none;fill-rule:nonzero;fill:rgb(13.729858%,12.159729%,12.548828%);fill-opacity:1;" d="M194.12353088787842,117.17191861901853 C193.92431188787845,117.58598161901858 193.54931188787845,117.79301261901855 193.01415488787842,117.79301261901855 C192.5258738878784,117.79301261901855 192.16259288787842,117.62113761901855 191.93993688787845,117.27738761901855 C191.7133738878784,116.92582461901856 191.59618688787845,116.48832461901856 191.59618688787845,115.96879361901853 C191.59618688787845,115.43363761901855 191.7133738878784,114.97270061901855 191.93993688787845,114.58598161901858 C192.16259288787842,114.19926261901855 192.5258738878784,114.01176261901855 193.0258738878784,114.01176261901855 C193.58056188787845,114.01176261901855 193.9789988878784,114.23441861901853 194.1977488878784,114.68754361901853 C194.3539988878784,114.97270061901855 194.42821788787842,115.34770061901855 194.42821788787842,115.80082461901856 C194.42821788787842,116.30863761901855 194.32665488787842,116.76566861901853 194.12353088787842,117.17191861901853 M194.62353088787842,113.92582461901856 C194.1977488878784,113.50395061901855 193.67431188787845,113.29691861901853 193.0414988878784,113.29691861901853 C192.35009288787842,113.29691861901853 191.78759288787842,113.53910661901858 191.37743688787845,114.02738761901855 C190.96728088787842,114.51566861901853 190.7602488878784,115.16020061901855 190.7602488878784,115.98832461901856 C190.7602488878784,116.75785661901858 190.95556188787845,117.36723161901858 191.34228088787842,117.82035661901858 C191.73290488787842,118.27348161901858 192.27196788787842,118.50004361901853 192.93993688787845,118.50004361901853 C193.7446238878784,118.50004361901853 194.33056188787845,118.24223161901858 194.70556188787845,117.73441861901853 C195.0883738878784,117.21879361901853 195.27978088787842,116.57035661901858 195.27978088787842,115.77738761901855 C195.27978088787842,114.95707461901856 195.0571238878784,114.33988761901855 194.62353088787842,113.92582461901856 " id="svg_7"/>
<path style=" stroke:none;fill-rule:nonzero;fill:rgb(13.729858%,12.159729%,12.548828%);fill-opacity:1;" d="M212.93993688787845,118.32035661901858 L213.76415488787842,118.32035661901858 L213.76415488787842,111.61723161901858 L212.93993688787845,111.61723161901858 zM212.93993688787845,118.32035661901858 " id="svg_8"/>
<path style=" stroke:none;fill-rule:nonzero;fill:rgb(13.729858%,12.159729%,12.548828%);fill-opacity:1;" d="M222.0102488878784,118.32035661901858 L222.84618688787845,118.32035661901858 L222.84618688787845,113.45316861901853 L222.0102488878784,113.45316861901853 zM222.0102488878784,118.32035661901858 " id="svg_9"/>
<path style=" stroke:none;fill-rule:nonzero;fill:rgb(13.729858%,12.159729%,12.548828%);fill-opacity:1;" d="M222.0102488878784,112.54691861901853 L222.84618688787845,112.54691861901853 L222.84618688787845,111.61723161901858 L222.0102488878784,111.61723161901858 zM222.0102488878784,112.54691861901853 " id="svg_10"/>
<path style=" stroke:none;fill-rule:nonzero;fill:rgb(13.729858%,12.159729%,12.548828%);fill-opacity:1;" d="M233.48290488787842,113.32426261901855 C233.16259288787842,113.32426261901855 232.88134288787842,113.39066861901853 232.61571788787842,113.51566861901853 C232.35790488787842,113.64066861901853 232.11181188787845,113.84379361901853 231.8852488878784,114.13285661901858 L231.8852488878784,113.43363761901855 L231.10009288787842,113.43363761901855 L231.10009288787842,118.32035661901858 L231.9321238878784,118.32035661901858 L231.9321238878784,115.76176261901855 C231.9321238878784,115.44145061901855 231.94384288787842,115.19926261901855 231.98681188787845,115.03129361901853 C232.0258738878784,114.85551261901855 232.11181188787845,114.69145061901855 232.24853088787842,114.53129361901853 C232.42431188787845,114.32816861901853 232.62353088787842,114.19145061901855 232.8383738878784,114.12504361901853 C232.97509288787842,114.08598161901858 233.13134288787842,114.06645061901855 233.3227488878784,114.06645061901855 C233.70556188787845,114.06645061901855 233.97509288787842,114.21879361901853 234.1196238878784,114.52348161901858 C234.20946788787842,114.70707461901856 234.25243688787845,114.94535661901858 234.25243688787845,115.25004361901853 L234.25243688787845,118.32035661901858 L235.0883738878784,118.32035661901858 L235.0883738878784,115.19535661901858 C235.0883738878784,114.69926261901855 235.02196788787842,114.32035661901858 234.8852488878784,114.05082461901856 C234.64306188787845,113.56645061901855 234.17431188787845,113.32426261901855 233.48290488787842,113.32426261901855 " id="svg_11"/>
<path style=" stroke:none;fill-rule:nonzero;fill:rgb(13.729858%,12.159729%,12.548828%);fill-opacity:1;" d="M247.24853088787842,113.43363761901855 L246.1977488878784,113.43363761901855 L244.0883738878784,115.51566861901853 L244.0883738878784,111.62113761901855 L243.29931188787845,111.62113761901855 L243.29931188787845,118.32426261901855 L244.0883738878784,118.32426261901855 L244.0883738878784,116.48832461901856 L244.76415488787842,115.83988761901855 L246.29931188787845,118.32426261901855 L247.35009288787842,118.32426261901855 L245.36181188787845,115.25004361901853 zM247.24853088787842,113.43363761901855 " id="svg_12"/>
<path style=" stroke:none;fill-rule:nonzero;fill:rgb(13.729858%,12.159729%,12.548828%);fill-opacity:1;" d="M266.9594678878784,113.31645061901855 C266.5610308878784,113.31645061901855 266.2329048878784,113.40238761901855 265.9633738878784,113.57426261901855 C265.81493688787845,113.67582461901856 265.64306188787845,113.85160661901858 265.4438428878784,114.09379361901853 L265.4438428878784,111.59770061901855 L264.6157178878784,111.59770061901855 L264.6157178878784,118.32426261901855 L265.4438428878784,118.32426261901855 L265.4438428878784,115.73051261901855 C265.4438428878784,115.08207461901856 265.58056188787845,114.64066861901853 265.8579048878784,114.40629361901853 C266.1391548878784,114.17191861901853 266.4438428878784,114.05082461901856 266.78368688787845,114.05082461901856 C267.1977488878784,114.05082461901856 267.4750928878784,114.18363761901855 267.6196238878784,114.45316861901853 C267.7133738878784,114.62895061901855 267.7602488878784,114.88676261901855 267.7602488878784,115.25004361901853 L267.7602488878784,118.32426261901855 L268.6079048878784,118.32426261901855 L268.6079048878784,115.19535661901858 C268.6079048878784,114.70707461901856 268.5454048878784,114.33207461901856 268.3969678878784,114.06254361901853 C268.1469678878784,113.57035661901858 267.6664988878784,113.31645061901855 266.9594678878784,113.31645061901855 " id="svg_13"/>
<path style=" stroke:none;fill-rule:nonzero;fill:rgb(13.729858%,12.159729%,12.548828%);fill-opacity:1;" d="M279.8735308878784,117.17191861901853 C279.6664988878784,117.58598161901858 279.29931188787845,117.79301261901855 278.7641548878784,117.79301261901855 C278.26806188787845,117.79301261901855 277.9125928878784,117.62113761901855 277.6860308878784,117.27738761901855 C277.4633738878784,116.92582461901856 277.3500928878784,116.48832461901856 277.3500928878784,115.96879361901853 C277.3500928878784,115.43363761901855 277.4633738878784,114.97270061901855 277.6860308878784,114.58598161901858 C277.9125928878784,114.19926261901855 278.2719678878784,114.01176261901855 278.7719678878784,114.01176261901855 C279.3266548878784,114.01176261901855 279.7250928878784,114.23441861901853 279.9594678878784,114.68754361901853 C280.0922808878784,114.97270061901855 280.1704048878784,115.34770061901855 280.1704048878784,115.80082461901856 C280.1704048878784,116.30863761901855 280.06493688787845,116.76566861901853 279.8735308878784,117.17191861901853 M280.3813428878784,113.92582461901856 C279.9516548878784,113.50395061901855 279.4164988878784,113.29691861901853 278.7954048878784,113.29691861901853 C278.09618688787845,113.29691861901853 277.5414988878784,113.53910661901858 277.1235308878784,114.02738761901855 C276.7133738878784,114.51566861901853 276.5063428878784,115.16020061901855 276.5063428878784,115.98832461901856 C276.5063428878784,116.75785661901858 276.6938428878784,117.36723161901858 277.09618688787845,117.82035661901858 C277.4829048878784,118.27348161901858 278.0141548878784,118.50004361901853 278.6821238878784,118.50004361901853 C279.48681188787845,118.50004361901853 280.0727488878784,118.24223161901858 280.4594678878784,117.73441861901853 C280.8422808878784,117.21879361901853 281.0258738878784,116.57035661901858 281.0258738878784,115.77738761901855 C281.0258738878784,114.95707461901856 280.81493688787845,114.33988761901855 280.3813428878784,113.92582461901856 " id="svg_14"/>
<path style=" stroke:none;fill-rule:nonzero;fill:rgb(13.729858%,12.159729%,12.548828%);fill-opacity:1;" d="M289.0727488878784,118.32035661901858 L289.9008738878784,118.32035661901858 L289.9008738878784,111.61723161901858 L289.0727488878784,111.61723161901858 zM289.0727488878784,118.32035661901858 " id="svg_15"/>
<path style=" stroke:none;fill-rule:nonzero;fill:rgb(13.729858%,12.159729%,12.548828%);fill-opacity:1;" d="M300.9907178878784,117.29301261901855 C300.7485308878784,117.62113761901855 300.4438428878784,117.78520061901855 300.0610308878784,117.78520061901855 C299.58056188787845,117.78520061901855 299.2133738878784,117.60160661901858 299.00243688787845,117.25395061901855 C298.7797808878784,116.89848161901858 298.6664988878784,116.46488761901855 298.6664988878784,115.94145061901855 C298.6664988878784,115.32426261901855 298.7914988878784,114.85551261901855 299.0532178878784,114.53910661901858 C299.3032178878784,114.22270061901855 299.6391548878784,114.06645061901855 300.0532178878784,114.06645061901855 C300.4282178878784,114.06645061901855 300.7289988878784,114.21488761901855 300.9789988878784,114.51566861901853 C301.2329048878784,114.81254361901853 301.36181188787845,115.26566861901853 301.36181188787845,115.88285661901858 C301.36181188787845,116.49613761901855 301.2446238878784,116.96488761901855 300.9907178878784,117.29301261901855 M301.3227488878784,111.59770061901855 L301.3227488878784,114.06645061901855 C301.14306188787845,113.83598161901858 300.9789988878784,113.67973161901858 300.8344678878784,113.58598161901858 C300.58056188787845,113.43363761901855 300.26806188787845,113.35160661901858 299.8891548878784,113.35160661901858 C299.22118688787845,113.35160661901858 298.70556188787845,113.60941861901853 298.34618688787845,114.13676261901855 C297.9750928878784,114.65629361901853 297.79931188787845,115.26957461901856 297.79931188787845,115.98832461901856 C297.79931188787845,116.75004361901853 297.9946238878784,117.35551261901855 298.3969678878784,117.81254361901853 C298.7914988878784,118.27348161901858 299.2563428878784,118.50004361901853 299.8032178878784,118.50004361901853 C300.14306188787845,118.50004361901853 300.4438428878784,118.43363761901855 300.6977488878784,118.30473161901858 C300.9633738878784,118.16410661901858 301.1821238878784,117.94535661901858 301.37743688787845,117.64457461901856 L301.37743688787845,118.32035661901858 L302.1196238878784,118.32035661901858 L302.1196238878784,111.59770061901855 zM301.3227488878784,111.59770061901855 " id="svg_16"/>
<path style=" stroke:none;fill-rule:nonzero;fill:rgb(13.729858%,12.159729%,12.548828%);fill-opacity:1;" d="M310.3579048878784,118.32035661901858 L311.1938428878784,118.32035661901858 L311.1938428878784,113.45316861901853 L310.3579048878784,113.45316861901853 zM310.3579048878784,118.32035661901858 " id="svg_17"/>
<path style=" stroke:none;fill-rule:nonzero;fill:rgb(13.729858%,12.159729%,12.548828%);fill-opacity:1;" d="M310.3579048878784,112.54691861901853 L311.1938428878784,112.54691861901853 L311.1938428878784,111.61723161901858 L310.3579048878784,111.61723161901858 zM310.3579048878784,112.54691861901853 " id="svg_18"/>
<path style=" stroke:none;fill-rule:nonzero;fill:rgb(13.729858%,12.159729%,12.548828%);fill-opacity:1;" d="M321.83056188787845,113.32426261901855 C321.51806188787845,113.32426261901855 321.2289988878784,113.39066861901853 320.9633738878784,113.51566861901853 C320.7094678878784,113.64066861901853 320.4672808878784,113.84379361901853 320.23681188787845,114.13285661901858 L320.23681188787845,113.43363761901855 L319.45556188787845,113.43363761901855 L319.45556188787845,118.32035661901858 L320.2719678878784,118.32035661901858 L320.2719678878784,115.76176261901855 C320.2719678878784,115.44145061901855 320.29931188787845,115.19926261901855 320.3344678878784,115.03129361901853 C320.37743688787845,114.85551261901855 320.4672808878784,114.69145061901855 320.6039988878784,114.53129361901853 C320.7758738878784,114.32816861901853 320.9672808878784,114.19145061901855 321.2016548878784,114.12504361901853 C321.31493688787845,114.08598161901858 321.48681188787845,114.06645061901855 321.6821238878784,114.06645061901855 C322.0610308878784,114.06645061901855 322.3227488878784,114.21879361901853 322.4750928878784,114.52348161901858 C322.5571238878784,114.70707461901856 322.6039988878784,114.94535661901858 322.6039988878784,115.25004361901853 L322.6039988878784,118.32035661901858 L323.4438428878784,118.32035661901858 L323.4438428878784,115.19535661901858 C323.4438428878784,114.69926261901855 323.37743688787845,114.32035661901858 323.23681188787845,114.05082461901856 C322.9907178878784,113.56645061901855 322.5258738878784,113.32426261901855 321.83056188787845,113.32426261901855 " id="svg_19"/>
<path style=" stroke:none;fill-rule:nonzero;fill:rgb(13.729858%,12.159729%,12.548828%);fill-opacity:1;" d="M334.65868688787845,116.91410661901858 C334.4204048878784,117.44926261901855 334.0063428878784,117.71488761901855 333.42431188787845,117.71488761901855 C333.0454048878784,117.71488761901855 332.7485308878784,117.56645061901855 332.5297808878784,117.28520061901855 C332.3032178878784,116.99613761901855 332.18993688787845,116.58207461901856 332.18993688787845,116.02348161901858 C332.18993688787845,115.55473161901858 332.2485308878784,115.17973161901858 332.3579048878784,114.89457461901856 C332.56493688787845,114.34379361901853 332.9633738878784,114.07426261901855 333.5414988878784,114.07426261901855 C333.9282178878784,114.07426261901855 334.2407178878784,114.22270061901855 334.4985308878784,114.51566861901853 C334.7485308878784,114.80863761901855 334.8696238878784,115.25395061901855 334.8696238878784,115.86723161901858 C334.8696238878784,116.26566861901853 334.7875928878784,116.61332461901856 334.65868688787845,116.91410661901858 M334.8696238878784,113.48441861901853 L334.8696238878784,114.09770061901855 C334.6977488878784,113.89457461901856 334.5454048878784,113.73832461901856 334.3852488878784,113.62895061901855 C334.1039988878784,113.44535661901858 333.7719678878784,113.34770061901855 333.39306188787845,113.34770061901855 C332.8227488878784,113.34770061901855 332.3422808878784,113.58598161901858 331.9438428878784,114.03520061901855 C331.54931188787845,114.50004361901853 331.3500928878784,115.13676261901855 331.3500928878784,115.96098161901858 C331.3500928878784,116.82035661901858 331.54931188787845,117.44926261901855 331.9438428878784,117.82035661901858 C332.3344678878784,118.19535661901858 332.7954048878784,118.39066861901853 333.3188428878784,118.39066861901853 C333.70556188787845,118.39066861901853 334.0063428878784,118.32035661901858 334.2407178878784,118.20316861901853 C334.47118688787845,118.08598161901858 334.65868688787845,117.89457461901856 334.8344678878784,117.64457461901856 C334.8422808878784,118.31645061901855 334.7875928878784,118.78129361901853 334.6704048878784,119.05082461901856 C334.4750928878784,119.48832461901856 334.0727488878784,119.71488761901855 333.4360308878784,119.71488761901855 C333.0454048878784,119.71488761901855 332.75243688787845,119.62113761901855 332.5610308878784,119.44145061901855 C332.4477488878784,119.32426261901855 332.3696238878784,119.15629361901853 332.3344678878784,118.93363761901855 L331.4946238878784,118.93363761901855 C331.5375928878784,119.43754361901853 331.73681188787845,119.80863761901855 332.09618688787845,120.04301261901855 C332.45556188787845,120.27738761901855 332.89306188787845,120.39066861901853 333.42431188787845,120.39066861901853 C334.36181188787845,120.39066861901853 335.0063428878784,120.06645061901855 335.34618688787845,119.39848161901858 C335.53368688787845,119.04691861901853 335.61181188787845,118.55082461901856 335.61181188787845,117.92973161901858 L335.61181188787845,113.48441861901853 zM334.8696238878784,113.48441861901853 " id="svg_20"/>
<path style=" stroke:none;fill-rule:nonzero;fill:rgb(13.729858%,12.159729%,12.548828%);fill-opacity:1;" d="M355.3813428878784,114.03129361901853 C355.7719678878784,114.03129361901853 356.0414988878784,114.13285661901858 356.22118688787845,114.32816861901853 C356.3852488878784,114.53129361901853 356.5063428878784,114.77738761901855 356.5532178878784,115.08207461901856 L357.3539988878784,115.08207461901856 C357.2797808878784,114.42973161901858 357.0688428878784,113.96488761901855 356.7250928878784,113.69926261901855 C356.3813428878784,113.42973161901858 355.9360308878784,113.29691861901853 355.3813428878784,113.29691861901853 C354.73681188787845,113.29691861901853 354.20556188787845,113.53129361901853 353.78368688787845,114.01176261901855 C353.3735308878784,114.48832461901856 353.1625928878784,115.16020061901855 353.1625928878784,116.01176261901855 C353.1625928878784,116.72270061901855 353.3500928878784,117.30082461901856 353.7329048878784,117.76566861901853 C354.1157178878784,118.23441861901853 354.62743688787845,118.46879361901853 355.2719678878784,118.46879361901853 C355.8344678878784,118.46879361901853 356.29931188787845,118.31645061901855 356.6664988878784,118.01957461901856 C357.0297808878784,117.72270061901855 357.2641548878784,117.25004361901853 357.3539988878784,116.60160661901858 L356.5532178878784,116.60160661901858 C356.47118688787845,116.96098161901858 356.3383738878784,117.23832461901856 356.1352488878784,117.44926261901855 C355.9438428878784,117.66410661901858 355.6704048878784,117.76566861901853 355.3266548878784,117.76566861901853 C354.8852488878784,117.76566861901853 354.5571238878784,117.58988761901855 354.3539988878784,117.25785661901858 C354.1391548878784,116.92582461901856 354.0414988878784,116.51176261901855 354.0414988878784,116.02348161901858 C354.0414988878784,115.53910661901858 354.1157178878784,115.12504361901853 354.2563428878784,114.79301261901855 C354.4829048878784,114.28129361901853 354.8579048878784,114.03129361901853 355.3813428878784,114.03129361901853 " id="svg_21"/>
<path style=" stroke:none;fill-rule:nonzero;fill:rgb(13.729858%,12.159729%,12.548828%);fill-opacity:1;" d="M368.22118688787845,117.17191861901853 C368.0219678878784,117.58598161901858 367.6508738878784,117.79301261901855 367.11181188787845,117.79301261901855 C366.6196238878784,117.79301261901855 366.2641548878784,117.62113761901855 366.0375928878784,117.27738761901855 C365.8071238878784,116.92582461901856 365.7016548878784,116.48832461901856 365.7016548878784,115.96879361901853 C365.7016548878784,115.43363761901855 365.8071238878784,114.97270061901855 366.0375928878784,114.58598161901858 C366.2641548878784,114.19926261901855 366.62743688787845,114.01176261901855 367.1235308878784,114.01176261901855 C367.6860308878784,114.01176261901855 368.08056188787845,114.23441861901853 368.3032178878784,114.68754361901853 C368.4477488878784,114.97270061901855 368.5297808878784,115.34770061901855 368.5297808878784,115.80082461901856 C368.5297808878784,116.30863761901855 368.4164988878784,116.76566861901853 368.22118688787845,117.17191861901853 M368.73681188787845,113.92582461901856 C368.2954048878784,113.50395061901855 367.7719678878784,113.29691861901853 367.1469678878784,113.29691861901853 C366.4477488878784,113.29691861901853 365.8891548878784,113.53910661901858 365.47118688787845,114.02738761901855 C365.06493688787845,114.51566861901853 364.8579048878784,115.16020061901855 364.8579048878784,115.98832461901856 C364.8579048878784,116.75785661901858 365.04931188787845,117.36723161901858 365.4438428878784,117.82035661901858 C365.8422808878784,118.27348161901858 366.3696238878784,118.50004361901853 367.0375928878784,118.50004361901853 C367.8422808878784,118.50004361901853 368.42431188787845,118.24223161901858 368.8071238878784,117.73441861901853 C369.18993688787845,117.21879361901853 369.3891548878784,116.57035661901858 369.3891548878784,115.77738761901855 C369.3891548878784,114.95707461901856 369.15868688787845,114.33988761901855 368.73681188787845,113.92582461901856 " id="svg_22"/>
<path style=" stroke:none;fill-rule:nonzero;fill:rgb(13.729858%,12.159729%,12.548828%);fill-opacity:1;" d="M377.6000928878784,118.32035661901858 L378.5532178878784,118.32035661901858 L378.5532178878784,117.33207461901856 L377.6000928878784,117.33207461901856 zM377.6000928878784,118.32035661901858 " id="svg_23"/>
</g></g></svg>