<?xml version="1.0" encoding="utf-8"?>
<!-- Generator: Adobe Illustrator 23.0.1, SVG Export Plug-In . SVG Version: 6.00 Build 0)  -->
<svg version="1.1" id="Layer_1" xmlns="http://www.w3.org/2000/svg" xmlns:xlink="http://www.w3.org/1999/xlink" x="0px" y="0px"
	 viewBox="0 0 60 45" style="enable-background:new 0 0 60 45;" xml:space="preserve">
<style type="text/css">
	.st0{opacity:0.5;}
	.st1{fill:#8CC53F;}
</style>
<g class="st0">
	<g>
		<g>
			<path class="st1" d="M54.7,0H5.3C2.4,0,0,2.3,0,5.2v34.6C0,42.7,2.4,45,5.3,45h49.5c2.9,0,5.3-2.3,5.3-5.2V5.2
				C60,2.3,57.6,0,54.7,0z M54,3.5L30.1,27L6,3.5H54z M3.5,39.1V5.9l16.9,16.5L3.5,39.1z M6,41.5l16.9-16.7l5.9,5.8
				c0.7,0.7,1.8,0.7,2.5,0l5.8-5.7L54,41.5H6z M56.5,39.1L39.6,22.5L56.5,5.9V39.1z"/>
		</g>
	</g>
</g>
</svg>
