<?xml version="1.0" encoding="utf-8"?>
<!-- Generator: Adobe Illustrator 23.1.0, SVG Export Plug-In . SVG Version: 6.00 Build 0)  -->
<svg version="1.1" id="Capa_1" xmlns="http://www.w3.org/2000/svg" xmlns:xlink="http://www.w3.org/1999/xlink" x="0px" y="0px"
	 viewBox="0 0 512 512" style="enable-background:new 0 0 512 512;" xml:space="preserve">
<style type="text/css">
	.st0{fill:#2D2D2D;}
</style>
<g>
	<path class="st0" d="M413.1,159.8l17.9-17.9c3-3,4-7.4,2.5-11.4c-1.4-4-5.1-6.7-9.3-7.1l-33.2-2.8l-2.8-33.2
		c-0.4-4.2-3.1-7.8-7.1-9.3c-4-1.4-8.4-0.5-11.4,2.5l-17.9,17.9c-29-17.8-62.1-27.1-96.4-27.1c-49.3,0-95.7,19.2-130.6,54.1
		s-54.1,81.3-54.1,130.6s19.2,95.7,54.1,130.6s81.3,54.1,130.6,54.1s95.7-19.2,130.6-54.1s54.1-81.3,54.1-130.6
		C440.3,221.9,430.9,188.8,413.1,159.8z M370.3,131.6c0.4,5.3,4.6,9.4,9.9,9.9l19.1,1.6L373.4,169l-28.2-2.4l-2.4-28.2l25.9-25.9
		L370.3,131.6z M292.4,256.2c0,20.3-16.5,36.8-36.8,36.8s-36.8-16.5-36.8-36.8s16.5-36.8,36.8-36.8c6.2,0,12.1,1.6,17.2,4.3
		l-24.9,24.9c-4.2,4.2-4.2,11.1,0,15.3c2.1,2.1,4.9,3.2,7.7,3.2s5.5-1.1,7.7-3.2l24.9-24.9C290.8,244.1,292.4,250,292.4,256.2z
		 M288.5,207.9c-9.4-6.4-20.7-10.2-32.9-10.2c-32.2,0-58.4,26.2-58.4,58.4s26.2,58.4,58.4,58.4s58.4-26.2,58.4-58.4
		c0-12.2-3.8-23.5-10.2-32.9l30.9-30.9c14.1,17.5,22.6,39.7,22.6,63.8c0,56.1-45.6,101.7-101.7,101.7s-101.7-45.6-101.7-101.7
		s45.6-101.7,101.7-101.7c24.2,0,46.4,8.5,63.8,22.6L288.5,207.9z M370.9,371.5c-30.8,30.8-71.7,47.8-115.3,47.8
		s-84.5-17-115.3-47.8s-47.8-71.7-47.8-115.3s17-84.5,47.8-115.3S212,93.1,255.6,93.1c28.5,0,56.1,7.3,80.6,21.3L324,126.6
		c-2,2-3.1,4.6-3.2,7.4c0,0.4,0,0.8,0,1.2l1.5,17.3c-19.2-12.4-42.1-19.6-66.7-19.6c-68,0-123.4,55.3-123.4,123.4
		s55.3,123.4,123.4,123.4S379,324.4,379,256.3c0-24.5-7.2-47.4-19.6-66.7l17.3,1.5c0.3,0,0.6,0,0.9,0c0.1,0,0.1,0,0.2,0s0.3,0,0.4,0
		c0.2,0,0.5,0,0.7-0.1c0.1,0,0.3,0,0.4-0.1c0.2,0,0.5-0.1,0.7-0.1c0.1,0,0.3-0.1,0.4-0.1c0.2-0.1,0.4-0.1,0.7-0.2
		c0.1,0,0.3-0.1,0.4-0.1c0.2-0.1,0.4-0.2,0.6-0.3c0.1-0.1,0.3-0.1,0.4-0.2c0.2-0.1,0.4-0.2,0.6-0.3c0.1-0.1,0.2-0.1,0.4-0.2
		c0.2-0.1,0.4-0.3,0.6-0.4c0.1-0.1,0.2-0.1,0.3-0.2c0.3-0.2,0.6-0.5,0.8-0.8l12.2-12.2c13.9,24.5,21.3,52.1,21.3,80.6
		C418.6,299.7,401.7,340.7,370.9,371.5z"/>
</g>
</svg>
