<?xml version="1.0" encoding="utf-8"?>
<!-- Generator: Adobe Illustrator 23.0.1, SVG Export Plug-In . SVG Version: 6.00 Build 0)  -->
<svg version="1.1" id="Capa_1" xmlns="http://www.w3.org/2000/svg" xmlns:xlink="http://www.w3.org/1999/xlink" x="0px" y="0px"
	 viewBox="0 0 512 512" style="enable-background:new 0 0 512 512;" xml:space="preserve">
<style type="text/css">
	.st0{fill:#FFFFFF;}
</style>
<g>
	<path class="st0" d="M40,339c-22.1,0-40,17.9-40,40s17.9,40,40,40v43c0,5.5,4.5,10,10,10h166c5.5,0,10-4.5,10-10v-54.8
		c0-3.3-1.6-6.3-4.2-8.2c-2.7-1.9-6.1-2.3-9.1-1.2c-2.4,0.8-4.5,1.3-6.6,1.3c-11,0-20-9-20-20s9-20,20-20c2.1,0,4.3,0.4,6.6,1.3
		c3.1,1.1,6.5,0.6,9.1-1.2c2.7-1.9,4.2-4.9,4.2-8.2V296c0-5.5-4.5-10-10-10h-43c0-22.1-17.9-40-40-40s-40,17.9-40,40H50
		c-5.5,0-10,4.5-10,10V339z M46.6,360.3c3.1,1.1,6.5,0.6,9.1-1.2c2.7-1.9,4.2-4.9,4.2-8.2V306h44.8c3.3,0,6.3-1.6,8.2-4.2
		c1.9-2.7,2.3-6.1,1.2-9.1c-0.8-2.4-1.3-4.5-1.3-6.6c0-11,9-20,20-20s20,9,20,20c0,2.1-0.4,4.3-1.3,6.6c-1.1,3.1-0.6,6.5,1.2,9.1
		c1.9,2.7,4.9,4.2,8.2,4.2H206v33c-22.1,0-40,17.9-40,40s17.9,40,40,40v33H60v-44.8c0-3.3-1.6-6.3-4.2-8.2c-2.7-1.9-6.1-2.3-9.1-1.2
		c-2.4,0.8-4.5,1.3-6.6,1.3c-11,0-20-9-20-20s9-20,20-20C42.1,359,44.3,359.4,46.6,360.3z"/>
	<path class="st0" d="M472,93V50c0-5.5-4.5-10-10-10H296c-5.5,0-10,4.5-10,10v54.8c0,3.3,1.6,6.3,4.2,8.2c2.7,1.9,6.1,2.3,9.1,1.2
		c2.4-0.8,4.5-1.3,6.6-1.3c11,0,20,9,20,20s-9,20-20,20c-2.1,0-4.3-0.4-6.6-1.3c-3.1-1.1-6.5-0.6-9.1,1.2c-2.7,1.9-4.2,4.9-4.2,8.2
		V216c0,5.5,4.5,10,10,10h43c0,22.1,17.9,40,40,40s40-17.9,40-40h43c5.5,0,10-4.5,10-10v-43c22.1,0,40-17.9,40-40S494.1,93,472,93z
		 M472,153c-2.1,0-4.3-0.4-6.6-1.3c-3.1-1.1-6.5-0.6-9.1,1.2c-2.7,1.9-4.2,4.9-4.2,8.2V206h-44.8c-3.3,0-6.3,1.6-8.2,4.2
		c-1.9,2.7-2.3,6.1-1.2,9.1c0.8,2.4,1.3,4.5,1.3,6.6c0,11-9,20-20,20s-20-9-20-20c0-2.1,0.4-4.3,1.3-6.6c1.1-3.1,0.6-6.5-1.2-9.1
		c-1.9-2.7-4.9-4.2-8.2-4.2H306v-33c22.1,0,40-17.9,40-40s-17.9-40-40-40V60h146v44.8c0,3.3,1.6,6.3,4.2,8.2
		c2.7,1.9,6.1,2.3,9.1,1.2c2.4-0.8,4.5-1.3,6.6-1.3c11,0,20,9,20,20S483,153,472,153z"/>
	<path class="st0" d="M216,40h-43c0-22.1-17.9-40-40-40S93,17.9,93,40H50c-5.5,0-10,4.5-10,10v166c0,5.5,4.5,10,10,10h54.8
		c3.3,0,6.3-1.6,8.2-4.2c1.9-2.7,2.3-6.1,1.2-9.1c-0.8-2.4-1.3-4.5-1.3-6.6c0-11,9-20,20-20s20,9,20,20c0,2.1-0.4,4.3-1.3,6.6
		c-1.1,3.1-0.6,6.5,1.2,9.1c1.9,2.7,4.9,4.2,8.2,4.2H216c5.5,0,10-4.5,10-10v-43c22.1,0,40-17.9,40-40s-17.9-40-40-40V50
		C226,44.5,221.5,40,216,40z M246,133c0,11-9,20-20,20c-2.1,0-4.3-0.4-6.6-1.3c-3.1-1.1-6.5-0.6-9.1,1.2c-2.7,1.9-4.2,4.9-4.2,8.2
		V206h-33c0-22.1-17.9-40-40-40s-40,17.9-40,40H60V60h44.8c3.3,0,6.3-1.6,8.2-4.2c1.9-2.7,2.3-6.1,1.2-9.1c-0.8-2.4-1.3-4.5-1.3-6.6
		c0-11,9-20,20-20s20,9,20,20c0,2.1-0.4,4.3-1.3,6.6c-1.1,3.1-0.6,6.5,1.2,9.1c1.9,2.7,4.9,4.2,8.2,4.2H206v44.8
		c0,3.3,1.6,6.3,4.2,8.2c2.7,1.9,6.1,2.3,9.1,1.2c2.4-0.8,4.5-1.3,6.6-1.3C237,113,246,122,246,133z"/>
	<circle class="st0" cx="462" cy="379" r="10"/>
	<path class="st0" d="M359,290.2c-1.9-2.7-4.9-4.2-8.2-4.2H296c-5.5,0-10,4.5-10,10v43c-22.1,0-40,17.9-40,40s17.9,40,40,40v43
		c0,5.5,4.5,10,10,10h43c0,22.1,17.9,40,40,40s40-17.9,40-40h43c5.5,0,10-4.5,10-10v-38c0-5.5-4.5-10-10-10s-10,4.5-10,10v28h-44.8
		c-3.3,0-6.3,1.6-8.2,4.2c-1.9,2.7-2.3,6.1-1.2,9.1c0.8,2.4,1.3,4.5,1.3,6.6c0,11-9,20-20,20s-20-9-20-20c0-2.1,0.4-4.3,1.3-6.6
		c1.1-3.1,0.6-6.5-1.2-9.1c-1.9-2.7-4.9-4.2-8.2-4.2H306v-44.8c0-3.3-1.6-6.3-4.2-8.2c-2.7-1.9-6.1-2.3-9.1-1.2
		c-2.4,0.8-4.5,1.3-6.6,1.3c-11,0-20-9-20-20s9-20,20-20c2.1,0,4.3,0.4,6.6,1.3c3.1,1.1,6.5,0.6,9.1-1.2c2.7-1.9,4.2-4.9,4.2-8.2
		V306h33c0,22.1,17.9,40,40,40s40-17.9,40-40h33v28c0,5.5,4.5,10,10,10s10-4.5,10-10v-38c0-5.5-4.5-10-10-10h-54.8
		c-3.3,0-6.3,1.6-8.2,4.2c-1.9,2.7-2.3,6.1-1.2,9.1c0.8,2.4,1.3,4.5,1.3,6.6c0,11-9,20-20,20s-20-9-20-20c0-2.1,0.4-4.3,1.3-6.6
		C361.4,296.3,360.9,292.9,359,290.2z"/>
</g>
</svg>
