<?xml version="1.0" encoding="utf-8"?>
<!-- Generator: Adobe Illustrator 23.0.1, SVG Export Plug-In . SVG Version: 6.00 Build 0)  -->
<svg version="1.1" id="Layer_1" xmlns="http://www.w3.org/2000/svg" xmlns:xlink="http://www.w3.org/1999/xlink" x="0px" y="0px"
	 viewBox="0 0 512 512" style="enable-background:new 0 0 512 512;" xml:space="preserve">
<style type="text/css">
	.st0{fill:#FFFFFF;}
</style>
<path class="st0" d="M503.6,244.2c-3.9-4.1-8.8-6.9-14.1-8.2c3.2-5,4.8-10.9,4.5-17c-0.6-15.9-14.3-28.9-30.5-28.9h-59.4l-0.1-89
	c0-19.3-15.7-35-35-35s-35,15.7-35,35v23.6c0,6-1.3,11.9-3.6,17.2c-44-1.7-79.4-38-79.4-82.4V48.5c0-6.9-5.6-12.5-12.5-12.5h-129
	C102.6,36,97,41.6,97,48.5V57c0,45.5-37,82.5-82.5,82.5h-2C5.6,139.5,0,145.1,0,152v150c0,95.9,78.1,174,174,174
	c68.1,0,129.5-39.5,158-101h104.6c6.8,0,13.5-2.8,18.3-7.7c4.7-4.8,7.3-11.1,7.2-17.8c-0.1-3.4-0.8-6.6-2.1-9.5h3.6
	c16.3,0,30-13,30.5-28.9c0.2-6.2-1.4-12.1-4.6-17.1c12.6-3.4,22.1-14.6,22.6-27.9C512.3,257.9,509.3,250.1,503.6,244.2z M174,461
	c-87.7,0-159-71.3-159-159V154.5c53.5-0.3,97-43.9,97-97.5v-6h124v8.3c0,49.2,36.7,90.1,84.2,96.6c-1.8,1.6-3.7,3.2-5.9,4.5
	l-41,26.1c-3.6,2.3-7.8,3.5-12.1,3.5H252c-2.8-9.2-11.4-16-21.5-16h-42c-9.8,0-18.1,6.3-21.2,15h-36.8c-10.8,0-19.5,8.8-19.5,19.5
	v129c0,10.8,8.7,19.5,19.5,19.5H166v73.8c-67.4-3.9-121-59.9-121-128.3V178.2c51.5-3.8,92.6-45.8,94.7-97.7H166v66
	c0,4.1,3.4,7.5,7.5,7.5s7.5-3.4,7.5-7.5V73c0-4.1-3.4-7.5-7.5-7.5h-41.2c-4.1,0-7.5,3.4-7.5,7.5v3.2c0,48.2-39.2,87.3-87.3,87.3
	c-4.1,0-7.5,3.4-7.5,7.5v131.5C30,381.6,94.4,446,173.5,446c4.1,0,7.5-3.4,7.5-7.5v-67.3c1.8,0.5,3.6,0.8,5.5,0.8h44
	c7.4,0,13.9-3.5,18-9l8,4.5c8.6,4.9,18.4,7.5,28.4,7.5h30.4C288.1,427.6,233.8,461,174,461z M166,342h-35.5c-2.5,0-4.5-2-4.5-4.5
	v-129c0-2.5,2-4.5,4.5-4.5H166V342z M481.5,280H423c-4.1,0-7.5,3.4-7.5,7.5s3.4,7.5,7.5,7.5h41c4.1,0,7.9,1.6,10.8,4.6
	c2.9,3,4.3,6.9,4.2,11c-0.3,8-7.3,14.4-15.5,14.4H437c-0.2,0-0.3,0-0.5,0c-0.2,0-0.3,0-0.5,0h-13c-4.1,0-7.5,3.4-7.5,7.5
	s3.4,7.5,7.5,7.5h13c0.2,0,0.3,0,0.5,0c0.2,0,0.3,0,0.5,0c5.4,0,9.9,4.4,10,9.8c0,2.6-1,5-2.9,7c-2,2-4.8,3.2-7.6,3.2H284.9
	c-7.3,0-14.6-1.9-21-5.5l-10.9-6.2v-17c0-4.1-3.4-7.5-7.5-7.5s-7.5,3.4-7.5,7.5v18.2c0,4.1-3.4,7.5-7.5,7.5h-44
	c-3,0-5.5-2.5-5.5-5.5v-155c0-4.1,3.4-7.5,7.5-7.5h42c4.1,0,7.5,3.4,7.5,7.5v99.8c0,4.1,3.4,7.5,7.5,7.5s7.5-3.4,7.5-7.5V205h8.3
	c7.1,0,14.1-2,20.1-5.9l41-26.1c16.7-10.6,26.6-28.7,26.6-48.5V101c0-11,9-20,20-20s20,9,20,20l0.1,91.5c0,6.9,5.6,12.5,12.5,12.5
	h61.9c8.3,0,15.2,6.5,15.5,14.4c0.1,4.1-1.3,8-4.2,11c-2.9,3-6.7,4.6-10.8,4.6h-41c-4.1,0-7.5,3.4-7.5,7.5s3.4,7.5,7.5,7.5h59
	c4.1,0,7.9,1.6,10.8,4.6c2.9,3,4.3,6.9,4.2,11C496.7,273.5,489.7,280,481.5,280z"/>
</svg>
