<?xml version="1.0" encoding="utf-8"?>
<!-- Generator: Adobe Illustrator 23.1.0, SVG Export Plug-In . SVG Version: 6.00 Build 0)  -->
<svg version="1.1" id="Layer_1" xmlns="http://www.w3.org/2000/svg" xmlns:xlink="http://www.w3.org/1999/xlink" x="0px" y="0px"
	 viewBox="0 0 154 38" style="enable-background:new 0 0 154 38;" xml:space="preserve">
<style type="text/css">
	.st0{fill:#80CC28;}
	.st1{fill:#FFFFFF;}
	.st2{fill:#353535;}
</style>
<rect x="1.2" y="18" class="st0" width="150.5" height="2.5"/>
<g>
	<circle class="st1" cx="76.5" cy="19.2" r="17"/>
	<g>
		<path id="svg_1_2_" class="st2" d="M74.9,29.3c0.4,0.1,0.8,0.3,1.3,0.4c0,0,0.2,0,0.5,0c-0.8-0.3-1.4-0.6-2-1
			c-0.6-1.7-0.2-3.3-0.2-3.3c0.5-3,3.7-5.4,3.7-5.4c5-4.4,1.5-7.9,1.2-8.1c0.6,1.6,0.8,4.1-2.6,7c0,0-3.5,2.6-4,5.8
			c0,0,0,0.1-0.1,0.4c-0.1-1.1,0.1-1.9,0.1-1.9c0.5-3,3.7-5.4,3.7-5.4c5-4.4,1.5-7.9,1.2-8.1c0.6,1.6,0.8,4.1-2.6,7
			c0,0-3.5,2.6-4,5.8c0,0-0.9,3.7,2,5.9c0.6,1.5,1.9,3.1,4.9,3.7c0,0,0.2,0,0.5,0C76.5,31.5,75.5,30.4,74.9,29.3 M84.7,22.2
			c2.7,9.6-4.4,9.9-6.3,9.9c0.3,0.1,0.5,0.1,0.8,0.2c0,0,8.9,1.1,6.2-9.1L84.7,22.2z M83.6,20.8l-0.6-0.9c2.7,9.6-4.4,9.9-6.3,9.9
			c0.3,0.1,0.5,0.1,0.8,0.2C77.4,29.9,86.4,31.1,83.6,20.8"/>
		<path id="svg_2_1_" class="st0" d="M89.1,13.5C86.2,7.9,79.5,5.4,73.7,8c-5.8,2.5-8.6,9.2-6.4,15.1c-1.4-5.6,1.4-11.5,6.9-13.9
			S85.9,8.6,89.1,13.5 M65.2,19.2c0-6.7,4.9-12.3,11.2-13.4c-7,0.4-12.6,6.2-12.6,13.4c0,7.1,5.6,13,12.6,13.4
			C70,31.5,65.2,25.9,65.2,19.2"/>
	</g>
</g>
</svg>
