<?xml version="1.0" encoding="utf-8"?>
<!-- Generator: Adobe Illustrator 23.1.0, SVG Export Plug-In . SVG Version: 6.00 Build 0)  -->
<svg version="1.1" id="Capa_1" xmlns="http://www.w3.org/2000/svg" xmlns:xlink="http://www.w3.org/1999/xlink" x="0px" y="0px"
	 viewBox="0 0 512 512" style="enable-background:new 0 0 512 512;" xml:space="preserve">
<style type="text/css">
	.st0{fill:#2D2D2D;}
</style>
<g>
	<g>
		<path class="st0" d="M454.3,258.6l-55.7-86C394.3,165.9,387,162,379,162H133.2c-7.9,0-15.2,4-19.6,10.6l-55.9,86
			c-5.7,8.8-4.8,20.4,2.1,28.2l178.7,200.6c4.4,5,10.8,7.8,17.4,7.8l0,0c6.6,0,13-2.8,17.4-7.8L452,286.8
			C459.1,279,459.9,267.4,454.3,258.6z M367.7,181.9l-46.8,72.4L274,181.9H367.7z M302.5,262.8h-92.9L256,191L302.5,262.8z
			 M238,181.9l-46.7,72.2l-46.7-72.2H238z M126,190.2l47,72.6H78.9L126,190.2z M83.1,282.8h100.6L237,455.5L83.1,282.8z M256,449.3
			l-51.3-166.5h102.6L256,449.3z M275,455.5l53.2-172.7h100.7L275,455.5z M339.2,262.8l46.9-72.6l47,72.6H339.2z"/>
	</g>
</g>
<g>
	<g>
		<path class="st0" d="M30.3,262.8H10c-5.5,0-10,4.5-10,10s4.5,10,10,10h20.3c5.5,0,10-4.5,10-10S35.9,262.8,30.3,262.8z"/>
	</g>
</g>
<g>
	<g>
		<path class="st0" d="M502,262.8h-20.3c-5.5,0-10,4.5-10,10s4.5,10,10,10H502c5.5,0,10-4.5,10-10S507.5,262.8,502,262.8z"/>
	</g>
</g>
<g>
	<g>
		<path class="st0" d="M437.1,91.8c-3.9-3.9-10.2-3.9-14.1,0L389.8,125c-3.9,3.9-3.9,10.2,0,14.1c2,2,4.5,2.9,7.1,2.9s5.1-1,7.1-2.9
			l33.2-33.2C441.1,102.1,441.1,95.7,437.1,91.8z"/>
	</g>
</g>
<g>
	<g>
		<path class="st0" d="M122.6,124.9L89.4,91.6c-3.9-3.9-10.2-3.9-14.1,0s-3.9,10.2,0,14.1l33.2,33.2c2,2,4.5,2.9,7.1,2.9
			s5.1-1,7.1-2.9C126.6,135.1,126.6,128.8,122.6,124.9z"/>
	</g>
</g>
<g>
	<g>
		<path class="st0" d="M256.3,16.8c-5.5,0-10,4.5-10,10V92c0,5.5,4.5,10,10,10s10-4.5,10-10V26.8C266.3,21.3,261.8,16.8,256.3,16.8z
			"/>
	</g>
</g>
<g>
	<g>
		<path class="st0" d="M263.3,118.7c-1.9-1.9-4.4-2.9-7.1-2.9s-5.2,1.1-7.1,2.9s-2.9,4.4-2.9,7.1c0,2.6,1.1,5.2,2.9,7.1
			c1.9,1.9,4.4,2.9,7.1,2.9s5.2-1.1,7.1-2.9c1.9-1.9,2.9-4.4,2.9-7.1S265.2,120.6,263.3,118.7z"/>
	</g>
</g>
</svg>
