<?xml version="1.0" encoding="utf-8"?>
<!-- Generator: Adobe Illustrator 23.0.1, SVG Export Plug-In . SVG Version: 6.00 Build 0)  -->
<svg version="1.1" id="Capa_1" xmlns="http://www.w3.org/2000/svg" xmlns:xlink="http://www.w3.org/1999/xlink" x="0px" y="0px"
	 viewBox="0 0 512 512" style="enable-background:new 0 0 512 512;" xml:space="preserve">
<style type="text/css">
	.st0{fill:#82CA28;}
</style>
<g>
	<path class="st0" d="M417.7,24.2l7.2,27.1l-299.5,79.8l7.3,27.1l-54.1,14.5l7.3,27.1L58.8,207l-14.5-54.2l-27.1,7.3l36.3,135.4
		l27.1-7.3L66,234.1l27.1-7.3l7.3,27.1l54.2-14.5l7.2,27l59.8-15.8c3.8,5.6,8.9,10.2,14.8,13.5L135.6,467.3h-33.4v28H153L242.4,315
		v152.3h-28v28h84.1v-28h-28V315.1l89.4,180.3h50.7v-28h-33.4L276.4,264.2c12.3-6.7,20.8-19.3,21.9-34l163-43.5l7.3,27.1l27.1-7.3
		L444.8,17L417.7,24.2z M120.2,219.6l-7.3-27.1l27.1-7.3l7.3,27.1L120.2,219.6z M159.8,151l218.3-58.2l21.8,81.3l-109,29.1
		c-7.6-10.9-20.2-18-34.5-18c-21.9,0-40,16.9-41.9,38.4l-32.9,8.7L159.8,151z M256.4,241.2c-7.7,0-14-6.3-14-14s6.3-14,14-14
		c7.7,0,14,6.3,14,14S264.1,241.2,256.4,241.2z M426.9,166.8l-21.8-81.2l27.1-7.2l21.8,81.2L426.9,166.8z"/>
</g>
</svg>
